<svg class="icon" viewBox="0 0 1024 1024" xmlns="http://www.w3.org/2000/svg" width="128" height="128"><defs><style/></defs><path d="M810.667 170.667h-64v-53.334a32 32 0 00-64 0v53.334H341.333v-53.334a32 32 0 00-64 0v53.334h-64a128 128 0 00-128 128v512a128 128 0 00128 128h597.334a128 128 0 00128-128v-512a128 128 0 00-128-128zM213.333 757.333A42.667 42.667 0 11256 714.667a42.667 42.667 0 01-42.667 42.666zm0-170.666A42.667 42.667 0 11256 544a42.667 42.667 0 01-42.667 42.667zM384 757.333a42.667 42.667 0 1142.667-42.666A42.667 42.667 0 01384 757.333zm0-170.666A42.667 42.667 0 11426.667 544 42.667 42.667 0 01384 586.667zm437.333 74.666h-96v96a32 32 0 01-64 0v-96h-96a32 32 0 010-64h96v-96a32 32 0 0164 0v96h96a32 32 0 010 64zm0-320H202.667a32 32 0 010-64h618.666a32 32 0 010 64z"/></svg>