<svg class="icon" viewBox="0 0 1152 1024" xmlns="http://www.w3.org/2000/svg" width="225" height="200"><defs><style/></defs><path d="M291.19 336.12H120.571A24.455 24.455 0 0096.4 356.594l-38.674 210.43 389.865 48.912c-65.404-83.32-134.505-189.103-156.4-279.816zm473.184 319.627l92.703 11.659-11.09-60.286-8.53-46.351c-24.172 34.408-49.48 66.541-73.083 94.978zm-44.36 51.754c-14.219 15.925-26.731 28.437-36.115 39.527l-20.474 21.612-41.233 43.792-41.518-44.36-20.758-21.613c-14.219-15.071-35.546-38.389-60.286-67.11l-219.246-28.436 71.945 259.34h519.535a25.024 25.024 0 0024.172-28.436l-28.437-154.695zm-499.915-62.845l-172.61-21.611L.284 881.817a25.024 25.024 0 0024.74 28.437H293.75l-73.082-260.479a31.28 31.28 0 01-.57-5.119zm402.093-254.791a113.746 113.746 0 10-113.747-113.746 113.746 113.746 0 00113.747 113.746zm0-170.62a56.873 56.873 0 11-56.873 56.874 56.873 56.873 0 0156.873-56.873z"/><path d="M622.192 729.682l20.758-21.896c26.73-28.437 260.479-279.532 260.479-426.549a281.237 281.237 0 00-562.475 0c0 146.733 234.033 398.112 260.763 426.549zm0-672.525a224.649 224.649 0 01224.364 224.365c0 95.831-146.733 278.394-224.364 364.84-77.632-85.309-224.365-269.009-224.365-364.84A224.649 224.649 0 01622.192 57.157z"/></svg>