<svg class="icon" viewBox="0 0 1024 1024" xmlns="http://www.w3.org/2000/svg" width="48" height="48"><defs><style/></defs><path d="M512 938.667A426.667 426.667 0 11938.667 512 426.667 426.667 0 01512 938.667zm0-789.334A362.667 362.667 0 10874.667 512 362.667 362.667 0 00512 149.333z"/><path d="M450.987 682.667a32.64 32.64 0 01-22.614-9.387l-162.986-163.2a31.787 31.787 0 010-45.227 32.213 32.213 0 0145.226 0l162.987 163.2a32 32 0 01-22.613 54.614z"/><path d="M464.213 678.187A31.36 31.36 0 01441.6 668.8a32.213 32.213 0 010-45.227l271.787-271.786a32.213 32.213 0 0145.226 0 31.787 31.787 0 010 45.226L486.827 668.8a30.933 30.933 0 01-22.614 9.387z"/></svg>