<svg class="icon" viewBox="0 0 1024 1024" xmlns="http://www.w3.org/2000/svg" width="48" height="48"><defs><style/></defs><path d="M341.333 256a170.667 170.667 0 10341.334 0 170.667 170.667 0 10-341.334 0zM512 757.333a245.333 245.333 0 01140.16-221.226A425.6 425.6 0 0086.613 904.96a31.36 31.36 0 0031.147 33.707h474.88A245.12 245.12 0 01512 757.333z"/><path d="M757.333 576a181.333 181.333 0 10181.334 181.333A181.547 181.547 0 00757.333 576zM832 787.413A32.213 32.213 0 01787.413 832l-30.08-29.44-30.08 29.44a32.213 32.213 0 01-44.586-44.587l30.293-30.08-30.293-30.08a32.213 32.213 0 0144.586-44.586l30.08 30.293 30.08-30.293A32.213 32.213 0 01832 727.253l-29.44 30.08z"/></svg>