<svg class="icon" viewBox="0 0 1024 1024" xmlns="http://www.w3.org/2000/svg" width="48" height="48"><defs><style/></defs><path d="M341.333 256a170.667 170.667 0 10341.334 0 170.667 170.667 0 10-341.334 0zM512 757.333a245.333 245.333 0 01140.16-221.226A425.6 425.6 0 0086.613 904.96a31.36 31.36 0 0031.147 33.707h474.88A245.12 245.12 0 01512 757.333z"/><path d="M757.333 576a181.333 181.333 0 10181.334 181.333A181.547 181.547 0 00757.333 576zm68.054 192l-25.174 42.667a21.333 21.333 0 01-17.706 10.24H732.16a21.333 21.333 0 01-17.707-10.24L689.28 768a21.333 21.333 0 010-21.333L714.453 704a21.333 21.333 0 0117.707-10.24h50.347A21.333 21.333 0 01800.213 704l25.174 42.667a21.333 21.333 0 010 21.333z"/></svg>