<svg class="icon" viewBox="0 0 1024 1024" xmlns="http://www.w3.org/2000/svg" width="48" height="48"><defs><style/></defs><path d="M201.6 875.733h620.8q30.933 0 30.933 30.934v.213q0 30.933-30.933 30.933H201.6q-30.933 0-30.933-30.933v-.213q0-30.934 30.933-30.934zm609.067-790.4H213.333a128 128 0 00-128 128v469.334a128 128 0 00128 128h597.334a128 128 0 00128-128V213.333a128 128 0 00-128-128zM672 479.787a32 32 0 010 64H544v66.986a32 32 0 01-64 0v-66.986H352a32 32 0 010-64h128V429.44H352a32 32 0 010-64h123.947l-110.08-51.2A32 32 0 11392.96 256l115.84 53.973 3.2 1.92 3.2-1.92L631.04 256a32 32 0 1127.093 58.027l-110.08 51.2H672a32 32 0 010 64H544v50.346z"/></svg>