<svg class="icon" viewBox="0 0 1156 1024" xmlns="http://www.w3.org/2000/svg" width="225.781" height="200"><defs><style/></defs><path d="M56.891 114.09H177.78v21.163a35.47 35.47 0 0035.413 35.414h355.84a35.47 35.47 0 0035.414-35.414v-21.19h120.889v252.899h56.888V91.733a34.304 34.304 0 00-33.99-34.531H604.446V35.413A35.47 35.47 0 00569.033 0h-355.84a35.47 35.47 0 00-35.413 35.413v21.789H33.993A34.304 34.304 0 00.003 91.733v780.175a34.304 34.304 0 0033.99 34.503h435.485v-56.89H56.89zM234.67 57.203h312.889v56.576h-312.89z"/><path d="M890.54 507.733a28.444 28.444 0 00-40.22 0L662.018 696.007 531.117 565.106a28.444 28.444 0 10-40.22 40.22l151.04 151.012a28.444 28.444 0 0040.191 0l208.413-208.384a28.444 28.444 0 000-40.22zM162.08 299.577H525.2v56.889H162.08zm-5.575 194.105h246.613v56.889H156.504zm0 194.133h165.973v56.889H156.504z"/></svg>