<svg class="icon" viewBox="0 0 1024 1024" xmlns="http://www.w3.org/2000/svg" width="37" height="37"><defs><style/></defs><path d="M511.953 75.59c89.148 0 166.484 57.463 188.232 139.673 3.093 11.812 11.061 21.842 21.935 27.56a43.687 43.687 0 0020.248 4.968c5.062 0 10.124-.843 14.905-2.624 12.561-4.594 26.06-6.656 42.652-6.656 81.836 0 148.392 63.931 148.392 142.486 0 69.743-56.995 131.519-129.738 140.518-21.841 2.718-38.246 21.279-38.246 43.308v121.582h-536.76V564.917c0-22.03-16.405-40.59-38.246-43.309-73.962-9.186-129.738-69.649-129.738-140.517 0-78.555 66.556-142.486 148.392-142.486 16.592 0 30.185 2.156 42.652 6.655a43.067 43.067 0 0014.905 2.625c6.937 0 13.874-1.687 20.248-4.968 10.874-5.718 18.842-15.655 21.936-27.56C345.469 133.053 422.806 75.59 511.953 75.59m0-43.589c-110.427 0-203.98 72.18-230.415 172.202-19.217-6.937-38.434-9.28-57.557-9.28C118.43 194.922 32 278.632 32 381.09c0 95.428 74.43 172.202 167.984 183.826v165.265h623.939V564.917c93.553-11.624 167.983-90.741 167.983-183.826 0-102.365-86.429-186.17-191.981-186.17-19.217 0-38.434 2.344-57.557 9.28C715.933 104.182 622.38 32 511.953 32zm268.38 785.36v65.432c0 36.746-33.56 65.431-76.399 65.431H319.972c-42.84 0-76.399-28.778-76.399-65.431V817.36h536.76m43.59-43.59h-623.94v109.115C199.984 944.005 252.76 992 319.973 992h383.962c67.213 0 119.989-47.995 119.989-109.114V773.77z"/></svg>