<svg class="icon" viewBox="0 0 1024 1024" xmlns="http://www.w3.org/2000/svg" width="48" height="48"><defs><style/></defs><path d="M512 544.213a230.827 230.827 0 11230.827-230.826A231.04 231.04 0 01512 544.213z"/><path d="M938.667 866.987a429.44 429.44 0 00-853.334 0 46.72 46.72 0 0046.08 53.12H892.16a46.72 46.72 0 0046.507-53.12zm-376.96-85.334l-39.04 39.04a14.507 14.507 0 01-21.334 0l-39.04-39.04a27.52 27.52 0 01-7.04-27.306l39.467-135.68a29.013 29.013 0 0117.28-52.48 28.8 28.8 0 0117.28 52.48l39.04 137.173a27.52 27.52 0 01-7.04 26.88z"/></svg>