<svg class="icon" viewBox="0 0 1024 1024" xmlns="http://www.w3.org/2000/svg" width="48" height="48"><defs><style/></defs><path d="M842.667 938.667H181.333a96.213 96.213 0 01-96-96V288a96.213 96.213 0 0196-96h661.334a96.213 96.213 0 0196 96v554.667a96.213 96.213 0 01-96 96zM181.333 256a32 32 0 00-32 32v554.667a32 32 0 0032 32h661.334a32 32 0 0032-32V288a32 32 0 00-32-32z"/><path d="M330.667 320a32 32 0 01-32-32V117.333a32 32 0 0164 0V288a32 32 0 01-32 32zm362.666 0a32 32 0 01-32-32V117.333a32 32 0 0164 0V288a32 32 0 01-32 32zm192 128h-768a32 32 0 010-64h768a32 32 0 010 64zm-128 192h-256a32 32 0 010-64h256a32 32 0 010 64z"/></svg>