<svg class="icon" viewBox="0 0 1156 1024" xmlns="http://www.w3.org/2000/svg" width="225.781" height="200"><defs><style/></defs><path d="M158.78 299.577H521.9v56.889H158.78zm-5.576 194.105h246.613v56.889H153.204zm0 194.133h165.973v56.889H153.204zm754.233 159.63l-105.5-105.529a185.344 185.344 0 10-40.221 40.25l105.5 105.5a28.444 28.444 0 1040.22-40.22zM743.312 723.513a128 128 0 1137.462-90.51 127.147 127.147 0 01-37.49 90.51z"/><path d="M56.891 114.09H177.78v21.163a35.47 35.47 0 0035.413 35.414h355.84a35.47 35.47 0 0035.414-35.414v-21.19h120.889v252.899h56.888V91.733a34.304 34.304 0 00-33.99-34.531H604.446V35.413A35.47 35.47 0 00569.033 0h-355.84a35.47 35.47 0 00-35.413 35.413v21.789H33.993A34.304 34.304 0 00.003 91.733v780.175a34.304 34.304 0 0033.99 34.503h435.485v-56.89H56.89zM234.67 57.203h312.889v56.576h-312.89z"/></svg>