<svg class="icon" viewBox="0 0 1024 1024" xmlns="http://www.w3.org/2000/svg" width="48" height="48"><defs><style/></defs><path d="M621.227 719.787a317.013 317.013 0 11224.213-92.8 315.947 315.947 0 01-224.213 92.8zm0-570.454a253.013 253.013 0 10178.986 74.027 251.52 251.52 0 00-178.986-74.027zm-134.4 789.334a32.213 32.213 0 01-22.614-9.387L94.507 559.787a32 32 0 0145.226-45.227L509.44 884.267a31.787 31.787 0 010 45.226 32.213 32.213 0 01-22.613 9.174z"/><path d="M201.173 854.827a32 32 0 01-22.613-54.614l201.6-201.6a32 32 0 1145.227 45.227l-201.6 201.6a32.213 32.213 0 01-22.614 9.387z"/></svg>