<svg class="icon" viewBox="0 0 1024 1024" xmlns="http://www.w3.org/2000/svg" width="128" height="128"><defs><style>@font-face{font-family:feedback-iconfont;src:url(//at.alicdn.com/t/font_1031158_1uhr8ri0pk5.eot?#iefix) format(&quot;embedded-opentype&quot;),url(//at.alicdn.com/t/font_1031158_1uhr8ri0pk5.woff2) format(&quot;woff2&quot;),url(//at.alicdn.com/t/font_1031158_1uhr8ri0pk5.woff) format(&quot;woff&quot;),url(//at.alicdn.com/t/font_1031158_1uhr8ri0pk5.ttf) format(&quot;truetype&quot;),url(//at.alicdn.com/t/font_1031158_1uhr8ri0pk5.svg#iconfont) format(&quot;svg&quot;)}</style></defs><path d="M800 608a176 176 0 10176 176 176 176 0 00-176-176zm0 328a152 152 0 11152-152 152 152 0 01-152 152z"/><path d="M768 64H128a64 64 0 00-64 64v768a64 64 0 0064 64h440a24 24 0 000-48H144a32 32 0 01-32-32V144a32 32 0 0132-32h608a32 32 0 0132 32v408a24 24 0 0048 0V128a64 64 0 00-64-64z"/><path d="M400 224h304q16 0 16 16t-16 16H400q-16 0-16-16t16-16zm0 544h112q16 0 16 16t-16 16H400q-16 0-16-16t16-16zM210.663 220.962l45.255 45.255q11.313 11.314 0 22.628-11.314 11.313-22.628 0l-45.255-45.255q-11.313-11.314 0-22.628 11.314-11.313 22.628 0z"/><path d="M233.239 266.281l90.51-90.51q11.314-11.313 22.628 0 11.313 11.314 0 22.628l-90.51 90.51q-11.314 11.313-22.628 0-11.313-11.314 0-22.628zM400 400h304q16 0 16 16t-16 16H400q-16 0-16-16t16-16zm-189.471-3.067l45.255 45.255q11.314 11.314 0 22.628-11.314 11.313-22.628 0l-45.254-45.255q-11.314-11.314 0-22.628 11.313-11.313 22.627 0z"/><path d="M233.203 442.256l90.51-90.51q11.313-11.313 22.627 0 11.314 11.314 0 22.628l-90.51 90.51q-11.314 11.314-22.627 0-11.314-11.314 0-22.628zM400 576h208q16 0 16 16t-16 16H400q-16 0-16-16t16-16zm-189.45-3.085l45.255 45.255q11.313 11.314 0 22.628-11.314 11.313-22.628 0l-45.255-45.255q-11.313-11.314 0-22.628 11.314-11.313 22.628 0z"/><path d="M233.177 618.227l90.51-90.51q11.314-11.313 22.627 0 11.314 11.314 0 22.628l-90.51 90.51q-11.313 11.313-22.627 0-11.313-11.314 0-22.628zM248 704a72 72 0 1072 72 71.84 71.84 0 00-72-72zm0 112a40 40 0 1140-40 40 40 0 01-40 40z"/></svg>