<svg class="icon" viewBox="0 0 1152 1024" xmlns="http://www.w3.org/2000/svg" width="225" height="200"><defs><style/></defs><path d="M242.176 176.356a28.444 28.444 0 01-28.444-28.445V28.444a28.444 28.444 0 0156.888 0v119.467a28.444 28.444 0 01-28.444 28.445z"/><path d="M875.52 59.477H753.351v56.89h99.982v736.966H56.89V116.366h99.954V59.477H34.703A34.76 34.76 0 000 94.18v781.34a34.76 34.76 0 0034.702 34.702H875.52a34.76 34.76 0 0034.702-34.702V94.208a34.76 34.76 0 00-34.702-34.702z"/><path d="M639.573 59.477h56.89v56.89h-56.89z"/><path d="M668.018 176.356a28.444 28.444 0 01-28.445-28.445V28.444a28.444 28.444 0 0156.89 0v119.467a28.444 28.444 0 01-28.445 28.445zm-212.907 0a28.444 28.444 0 01-28.444-28.445V28.444a28.444 28.444 0 0156.889 0v119.467a28.444 28.444 0 01-28.445 28.445zM327.51 59.477h42.269v56.89H327.51z"/><path d="M426.667 59.477h56.889v56.89h-56.89zm113.777 0h42.269v56.89h-42.269zM171.378 251.392H569.6v56.889H171.378zm0 160.882H768.71v56.889H171.378zm0 145.038h284.444v56.889H171.378zm0 145.038h512v56.89h-512z"/></svg>