<svg xmlns="http://www.w3.org/2000/svg" width="1095.054" height="1095.052"><defs><style>.cls-1{fill:#16346d}.cls-2{fill:#bd161d}</style></defs><g id="组_98" data-name="组 98" transform="translate(-10.92 -256)"><g id="组_3" data-name="组 3"><g id="组_2" data-name="组 2"><g id="组_1" data-name="组 1"><path id="路径_1" data-name="路径 1" class="cls-1" d="M569.192 1350.945C267.345 1356.87 16.953 1116.119 11.027 814.27S245.853 262.032 547.7 256.107s552.24 234.825 558.166 536.672-234.826 552.241-536.674 558.166zM547.9 266.432C251.746 272.245 15.538 517.914 21.352 814.068s251.48 532.365 547.637 526.551 532.363-251.482 526.549-547.637S844.056 260.618 547.9 266.432z"/></g></g></g><g id="组_6" data-name="组 6"><g id="组_5" data-name="组 5"><g id="组_4" data-name="组 4"><path id="路径_2" data-name="路径 2" class="cls-1" d="M566.216 1199.353c-218.26 4.285-399.314-169.8-403.6-388.058s169.8-399.312 388.058-403.6 399.316 169.8 403.6 388.056-169.798 399.318-388.058 403.602zm-15.337-781.33c-212.566 4.173-382.107 180.5-377.935 393.069s180.5 382.11 393.07 377.937 382.107-180.505 377.934-393.071S763.446 413.85 550.879 418.023z"/></g></g></g><g id="组_41" data-name="组 41"><g id="组_8" data-name="组 8"><g id="组_7" data-name="组 7"><path id="路径_3" data-name="路径 3" class="cls-1" d="M56.458 905.459q-.376-1.807-1.33-6.356-1.965-7.166-2.923-11.712-1.538-9.633 7.9-12.08 12.642-.745 16.187 9.412 1.771 3.9-5.747 8.785-4.608 2.865-6.009 9.789-1.317 5.02-4.045 5.585-3.171.663-4.033-3.423zm3.249 17.806q-1.9-9.078 2.188-9.936c1.215-.256 2.883.188 5.017 1.321q3.294 2.152 5.563 1.679 6.814-1.425 14.007-21.416 10.837-29.747 26.278-32.986 20.718-2.911 25.923 19.7 1.8 8.633-1.375 9.293-2.628 1.026-5.492-3.59-4.594-6.152-9.957-4.553-7.716 1.612-16.255 24.254-10.933 29.303-24.556 32.149-16.632 2.058-21.341-15.915zm69.986-18.906a7.073 7.073 0 004.69-4.77 5.451 5.451 0 013.971-3.675c2.425-.508 3.919 1.393 4.508 5.691q3.651 21.987-6.15 24.985-14 1.041-18.67-12.21-2.327-6.62 11.651-10.021z"/></g></g><g id="组_10" data-name="组 10"><g id="组_9" data-name="组 9"><path id="路径_4" data-name="路径 4" class="cls-1" d="M80.1 784.446l-6.031.021q-6.024.02-8.792 6.525-1.379 4.182-4.161 4.191-2.319.008-5.122-5.55c-1.241-2.469-2.337-4.474-3.269-6.02q-.928-1.391-2.332-3.241-5.123-6.941-4.674-10.653.91-6.961 9.716-7.457 2.328-.011 6.96-.023 6.5.442 10.207.429l27.372-.1q4.176-.012 6.945-4.2c1.544-2.166 3.083-3.259 4.628-3.263q17.649 4.114 20.008 17.561-.884 11.6-19.908 12.13l-6.031.02c-3.089-.294-5.407-.445-6.96-.44l-8.351.029.137 39.9 6.032-.022q8.351-.026 11.118-4.677a4.2 4.2 0 013.7-2.333q19.042 4.111 20.471 17.1-.426 11.6-18.515 12.126-3.242.012-9.743.031-7.884-.429-11.6-.423l-17.63.062q-5.567.018-8.792 6.059-1.834 4.182-4.162 4.19T56.2 850.87a50.626 50.626 0 00-3.266-5.091q-6.993-9.72-7.007-14.358Q45.9 824 56.569 823.96c2.168-.007 4.952.144 8.352.437q5.109-.02 7.423-.027l7.887-.025z"/></g></g><g id="组_12" data-name="组 12"><g id="组_11" data-name="组 11"><path id="路径_5" data-name="路径 5" class="cls-1" d="M111.291 676.824L97.254 673.7q-9.51-2.118-15.551 3.669c-2.046 2.084-3.82 2.951-5.334 2.616s-3.032-2.733-4.577-7.2a306.401 306.401 0 00-2.515-5.788q-4.47-7.644-3.317-10.718 1.164-7.34 13.285-4.173l40.3 8.968q31.955 8.067 24.545 43.483-8.568 38.5-39.362 31.642l-25.359-5.644q-5.878-1.308-10.367 3.871-2.709 3.672-5.887 2.966-2.718-.6-4.477-7.648a22.46 22.46 0 01-.855-2.567 41.7 41.7 0 00-2.061-5.688q-2.912-8.244-1.757-11.321 1.365-8.25 15.4-5.128 4.989 1.11 16.2 4.079 14.4 3.683 22.542 5.493 20.933 4.188 25.666-12.825 4.793-19.361-22.482-24.963z"/></g></g><g id="组_14" data-name="组 14"><g id="组_13" data-name="组 13"><path id="路径_6" data-name="路径 6" class="cls-1" d="M122.475 639.112l-17.739-8.062q-9.709-4.411-15.778-.035-3.648 2.427-7.027.882-5.295-2.9-3.61-7.754.957-2.109 3.876-7.411a173.638 173.638 0 009.713-18.008q3.039-7.791 6.642-5.643c1.129.511 1.946 2.077 2.457 4.682a26.8 26.8 0 00.961 3.494q-.228 4.995 13.478 10.711l20.694 9.4q5.922 2.691 9.561.267a4.8 4.8 0 015.374-.613q14.979 11.9 10.83 23.266-5.418 10.794-23.342 3.15-2.533-1.153-7.411-3.878-5.297-2.901-8.679-4.448zM98.55 581.867q3-8.824 5.681-14.743 7.108-10.014 17.585-7.3 9.334 5.268 6.569 14.7-1.923 4.229-9.139 5.531-7.83 1.541-12.056 5.221-5.033 4.344-7.371 2.766-2.952-1.333-1.269-6.175zm22 22.228a48.425 48.425 0 001.881-5.258 98.763 98.763 0 013.571-10.1q4.688-8.056 14.552-5.109 9.1 4.651 5.3 14.131-2.306 5.066-9.33 5.951a23.475 23.475 0 00-8.985 4.07q-2.568 3.42-5.335 1.653-3.57-1.107-1.652-5.338z"/></g></g><g id="组_16" data-name="组 16"><g id="组_15" data-name="组 15"><path id="路径_7" data-name="路径 7" class="cls-1" d="M164.613 535.886l9.789 7.051q17.7 12.75 24.5 9.647 5.514-2.889 7.876-.614 2.907 1.529-.62 6.417l-4.068 5.644a130.723 130.723 0 00-7.382 11.834 55.3 55.3 0 01-3.858 6.942q-5.429 7.535-11.071 3.46-3.388-2.442-2.935-7.834 1-6.142-4.649-10.212l-28.608-20.611q-8.274-5.961-14.171-3.349-3.4 1.559-5.663-.077-6.561-3.576-1.848-9.337 1.893-2.631 9.7-11.879 6.341-8 10.516-13.007 2.885-4.783 5.618-2.243c1.5 1.086 1.951 3.121 1.323 6.1q-3.806 9.266 15.551 22.068zm-14.562-38.513a137.15 137.15 0 017.925-12.587q8.679-12.039 17.711-5.535 7.359 6.451 1.983 16.294-2.175 3.018-7.727 3.581a23.55 23.55 0 00-12.095 3.295q-5.781 3.269-7.771 1.262-2.256-1.626-.568-5.557l.542-.753zm16.661 26.874q1.081-1.5 3.149-5.166 3.315-6.187 4.4-7.694 6.994-8.107 15.814-2.9 7.091 6.824 2.146 15.271-3.25 4.516-11.339 3.835-5.765-.722-8.419 1.368-3.357 3.88-5.724 1.594c-2.003-1.445-2.019-3.545-.027-6.308zm57.4-16.97q12.635 10.259 5.79 21.328-4.34 6.024-11.331 14.136t-9.459 5.194q-2.532-1.25.139-7.334 3.205-6.832.5-17.365-2.121-8.953 1.135-13.478 5.425-7.524 13.225-2.481z"/></g></g><g id="组_18" data-name="组 18"><g id="组_17" data-name="组 17"><path id="路径_8" data-name="路径 8" class="cls-1" d="M256.444 397.118l19.17 21.447q4.951 5.538 15.494 16.64l11.13 12.453q6.832 6.957 1.342 11.245 1.121 3.343-26.734 2.115-13.757-.77-23.927-1.013-30.822-1.066-36.448-.4-6.934.6-10.773 4.653-6.341 7.531-13.685-2.08-12.276-9.559 1.684-18.3 7.713-8.763 19.091-6.486 45.2 2.533 64.234 2.943l-13.6-15.218q-8.655-9.681-18.666-6.962-5 1.368-6.86-.712t1.06-7.17a35.376 35.376 0 002.221-4.475q.762-1.92 1.568-4.512a12.806 12.806 0 013.295-6.058q5.148-3.985 10.404 1.89zm-37.455 82.012l-6.182-6.918c-1.83-2.5-2.042-4.6-.633-6.278q10.118-4.686 16.957 2.263l5.874 6.574q4.64 5.189 10.916 4.555 4.618-.4 6.477 1.676 9.018 14.971 1.37 22.42-7.92 6.455-17.846-3.957-2.474-2.766-8-9.649-5.843-7.216-8.933-10.686z"/></g></g><g id="组_20" data-name="组 20"><g id="组_19" data-name="组 19"><path id="路径_9" data-name="路径 9" class="cls-1" d="M323.826 347.416q8.361-4.006 10.173-.246.8 1.677-.089 5.186-1.3 3.714-.3 5.805 3 6.274 24.135 8.491 31.48 3.43 38.3 17.651 7.773 19.425-12.943 29.873-7.954 3.813-9.353.881-1.629-2.306 2.176-6.188 4.877-5.928 2.046-10.756-3.408-7.109-27.431-10-31.065-3.624-37.086-16.177-5.962-15.658 10.372-24.52zm35.056 63.453a7.075 7.075 0 005.754 3.417 5.46 5.46 0 014.516 2.978c1.071 2.236-.421 4.141-4.454 5.738q-20.479 8.794-25.729-.012-4.35-13.348 7.4-21.043 5.877-3.842 12.513 8.922zm-18.543-70.856q1.673-.8 5.859-2.809 6.488-3.617 10.674-5.633 8.986-3.791 13.618 4.79 3.736 12.1-5.276 17.967-3.363 2.645-9.9-3.485-3.883-3.8-10.941-3.5-5.187-.08-6.389-2.594-1.404-2.925 2.355-4.736z"/></g></g><g id="组_22" data-name="组 22"><g id="组_21" data-name="组 21"><path id="路径_10" data-name="路径 10" class="cls-1" d="M419.505 320.525l9.97 37.193q2.641 9.863 7.963 11.8a2.987 2.987 0 012.516 2.208q1.006 19.9-10.726 24.488-11.781 2.671-16.666-13.786-1.56-5.818-4.116-17.147-2.444-10.872-4-16.7-2.88-10.755-10.324-11.64-3.5-.506-4.218-3.194-.6-2.235 5.367-8.643l2.327-2.066q1.879-1.942 4.864-5.146 4.865-5.141 7.226-5.3 7.168-1.924 9.817 7.933zm16.834 30.549l3.586-.959q13.764-4.167 10.374-18.633-3.812-12.417-14.806-10.44a31.97 31.97 0 00-4.81 1.769 13.34 13.34 0 01-3.016 1.288q-2.247.6-2.961-2.086 1.472-12.4 15.906-17.713 22.191-4.98 31.043 19.055 5.055 26.023-22.485 34.367-13.563 3.162-16.021-2.43-.84-3.129 3.19-4.218z"/></g></g><g id="组_24" data-name="组 24"><g id="组_23" data-name="组 23"><path id="路径_11" data-name="路径 11" class="cls-1" d="M513.275 316.081l4.6 41.032q.573 5.076 7.746 6.6 5.739 1.224 6.153 4.91.876 7.845-3.731 8.355a48.072 48.072 0 01-5.124.107 70.072 70.072 0 00-12.6.015 78.76 78.76 0 00-10.5 2.113 31.8 31.8 0 01-6.353 1.645q-4.609.52-5.385-6.4-.468-4.15 3.475-6.461 5.33-2.459 4.551-9.381l-4.6-41.029q-.519-4.607-6.414-7.218-4.873-1.786-5.283-5.477-.268-6.5 4.3-7.485a31.926 31.926 0 016.093.25 68.379 68.379 0 0010.247-.216 57.685 57.685 0 0011.833-2.729 28.45 28.45 0 014.1-.925q5.483-1.077 6.36 6.754.417 3.7-4.449 6.1a8.694 8.694 0 00-5.019 9.44z"/></g></g><g id="组_26" data-name="组 26"><g id="组_25" data-name="组 25"><path id="路径_12" data-name="路径 12" class="cls-1" d="M578.523 291.292c3.707.153 5.516 1.317 5.43 3.474q.789 3.287-6.74 5.76-16.086 7.239-17.364 27.144.995 32.079 30.573 35.617 10.657.438 21.165-6.559 4.284-2.61 6.139-2.532c2.158.087 3.194 1.371 3.091 3.84q-9.627 19.573-38.4 19.315-45.337-4.181-47.789-46.076 4.302-36.963 43.895-39.983zm33.214 27.833q-6.515.2-10.724-10.191a17.858 17.858 0 00-8.463-8.7c-2.426-1.334-3.6-2.775-3.538-4.327q.135-3.237 6.179-3.461c.3.014.616.027.928.039q2.314.1 6.97-.177l5.564.229a10.628 10.628 0 019.117 4.089 18.479 18.479 0 013.677 12.223q-.885 10.177-9.71 10.276z"/></g></g><g id="组_28" data-name="组 28"><g id="组_27" data-name="组 27"><path id="路径_13" data-name="路径 13" class="cls-1" d="M666.807 314.658L684.02 352.2c.439-.527.888-1.055 1.337-1.587q8.8-8.852 10.094-16.18 2.82-11.724-8.363-16.8-6-2.875-5.123-6.481-.7-3.034 10.974-5.95a26.829 26.829 0 013.252-1.6q5.367-2.523 7.976-1.421 15.588 6.612 12.148 24.871-2.466 14.2-22.916 29.8-8.716 6.492-9.335 13.024-1.736 7.221 4.721 12.11 4.524 3 3.661 6.607c-1.549 3.765-3.775 5.772-6.7 6.022a39.281 39.281 0 01-7-2.638 45.516 45.516 0 00-9.149-3.63q-5.078-.743-10.7-1.144a31.931 31.931 0 01-6.533-.616q-4.408-1.531-2.99-7.4.737-5.067 6.028-5.231 7.092.275 8.485-7.5 3.228-3.518-7.98-24.347-9.3-20.847-18.2-21.556c-3.169-1.4-4.454-3.293-3.877-5.7q.544-2.251 5.7-3.876a34 34 0 006.949-3.1q7.941-5.247 11.894-3.819 4.177.518 8.434 10.6z"/></g></g><g id="组_30" data-name="组 30"><g id="组_29" data-name="组 29"><path id="路径_14" data-name="路径 14" class="cls-1" d="M815.8 399.77l3.016-5.224q3.012-5.217-1.217-10.881-2.919-3.293-1.529-5.7 1.158-2.006 7.374-1.634c2.758.169 5.037.232 6.846.2 1.113-.068 2.435-.2 3.974-.384q8.574-.936 11.562 1.32 5.553 4.289 1.555 12.147-1.17 2.016-3.482 6.026-3.659 5.4-5.508 8.607l-13.686 23.7q-2.092 3.615.133 8.113c1.094 2.425 1.267 4.306.494 5.643q-12.438 13.182-25.244 8.457-9.585-6.6-.471-23.307l3.017-5.222q2.716-3.785 3.884-5.794l4.177-7.232-34.55-19.952-3.018 5.222q-4.174 7.231-1.548 11.962a4.206 4.206 0 01.149 4.373q-13.128 14.39-25.069 9.09-9.81-6.21-1.166-22.1 1.626-2.807 4.875-8.437 4.336-6.6 6.2-9.813l8.815-15.265q2.787-4.819-.814-10.648-2.688-3.69-1.528-5.7t7.374-1.636a50.818 50.818 0 006.042-.26q11.922-1.154 15.936 1.166 6.42 3.71 1.09 12.953-1.623 2.814-4.578 7-2.555 4.424-3.71 6.428l-3.946 6.83z"/></g></g><g id="组_32" data-name="组 32"><g id="组_31" data-name="组 31"><path id="路径_15" data-name="路径 15" class="cls-1" d="M904.614 459.715q.312-9.856-11.512-20.291-3.426-3.825-1.217-6.853 1.581-1.692 6.173-1.848a39.971 39.971 0 005.565-.515l1.967-.067q8.82-1.282 10.219 1.3 21.694 30.45-.3 59.42-33.788 30.023-65.548 2.859-30.633-32.451-5.464-64.807 19.078-18.366 40.119-7.584 2.707 2.532.494 4.906a18.043 18.043 0 01-4.5 2.778 51.886 51.886 0 00-14.731 11q-21.033 28.61-4.88 50.055 14.181 11.992 33.6-6.052 10.426-11.84 10.015-24.301z"/></g></g><g id="组_34" data-name="组 34"><g id="组_33" data-name="组 33"><path id="路径_16" data-name="路径 16" class="cls-1" d="M918.952 543.24q3.832-2.6 11.775-7.434 7.163-4.316 10.623-6.654t7.8-5.856c1.789-1.212 3.071-2.086 3.84-2.605q2.8-2.472 9.405 1.463a24.668 24.668 0 018.172 7.908q3.384 4.984-1.215 8.116c-1.026.7-2.91 1.784-5.637 3.266a137.854 137.854 0 00-13.187 7.835q-12.162 7.692-11.609 11.806-.1 3.988-2.4 5.553-17.838 5.934-25.118-3.132-6.127-9.861 7.551-20.266zm59.1-26.109q4.692 6.909 15.072 17.244a95.159 95.159 0 019.616 10.855q4.319 8.843-12.156 23.394-5.379 3.651-9.407-1.464-1.3-1.926-.852-9.515 1.379-19.439-9.046-34.793-9.379-13.818-27.838-20.352-6.848-2.645-8.145-4.563-3.657-5.379 1.34-8.76 19.6-9.943 26.75-1.9 1.82 2.678 5.241 11.021 5.25 12.69 9.423 18.833z"/></g></g><g id="组_36" data-name="组 36"><g id="组_35" data-name="组 35"><path id="路径_17" data-name="路径 17" class="cls-1" d="M1033.962 640.786L997.314 652.6q-9.717 3.133-11.381 8.542a2.988 2.988 0 01-2.08 2.622q-19.827 2-24.993-9.491-3.26-11.625 12.94-17.328 5.73-1.85 16.918-4.967 10.742-2.982 16.481-4.826 10.6-3.417 11.112-10.895.328-3.519 2.977-4.37 2.2-.711 8.9 4.928l2.18 2.222a362.069 362.069 0 005.381 4.6q5.376 4.593 5.653 6.951 2.272 7.061-7.44 10.198zm-29.669 18.341l1.139 3.531q4.848 13.542 19.124 9.433 12.214-4.426 9.691-15.309a31.986 31.986 0 00-2.009-4.715 13.463 13.463 0 01-1.437-2.949c-.476-1.477.169-2.492 1.936-3.061q12.451.852 18.484 15 6.084 21.914-17.48 31.957-25.741 6.344-35.446-20.743-3.837-13.387 1.624-16.122 3.081-.994 4.374 2.978z"/></g></g><g id="组_38" data-name="组 38"><g id="组_37" data-name="组 37"><path id="路径_18" data-name="路径 18" class="cls-1" d="M1045.317 771.943q6.721-7.216 4.68-22.858-.06-5.13 3.594-5.957 2.3-.234 5.866 2.67a40.092 40.092 0 004.528 3.271l1.524 1.245q7.488 4.836 6.843 7.7-3.7 37.2-39.321 44.547-45.2.381-51.245-40.976-1.721-44.59 38.527-52.394 26.451-1.28 35.2 20.683.37 3.69-2.857 4.021a17.972 17.972 0 01-5.217-.871 51.9 51.9 0 00-18.329-1.409q-34.661 7.708-36.61 34.485 2.787 18.364 29.289 17.553 15.639-2.053 23.528-11.71z"/></g></g><g id="组_40" data-name="组 40"><g id="组_39" data-name="组 39"><path id="路径_19" data-name="路径 19" class="cls-1" d="M1001.219 844.227q4.6.555 13.762 2.13 8.236 1.453 12.382 1.961t9.727.709q3.219.389 4.607.555 3.736-.018 6.13 7.284a24.69 24.69 0 01.966 11.331q-.719 5.98-6.25 5.32c-1.23-.148-3.361-.566-6.393-1.239a138.31 138.31 0 00-15.087-2.756q-14.224-2.19-16.508 1.276c-1.8 1.959-3.615 2.837-5.457 2.612q-17.352-7.242-16.88-18.861 1.854-11.461 19.001-10.322zm61.711 19.135q-1 8.29.037 22.9a94.159 94.159 0 01.117 14.5q-2.551 9.506-24.528 9.653-6.454-.78-6.132-7.282.278-2.31 5.609-7.734 13.8-13.755 16.033-32.175 2-16.583-7.621-33.633-3.42-6.49-3.144-8.79.781-6.456 6.765-5.725 21.316 5.379 21.418 16.137-.385 3.218-3.288 11.752-4.379 13.024-5.266 20.397z"/></g></g></g><g id="组_56" data-name="组 56"><g id="组_43" data-name="组 43"><g id="组_42" data-name="组 42"><path id="路径_20" data-name="路径 20" class="cls-2" d="M248.87 1110.111c.171.142.744.325 1.088.611.948.782.654 1.841.286 2.986a2.576 2.576 0 00.507 2.015c.6.5 12.059 7.5 13.077 8.2a1.97 1.97 0 001.522.968l.14-.172c-1.184-3.3-.666-5.333.561-9.972.24-.816-1.249-4.8-1.325-5.585-.062-.628.229-3.433.256-3.992a5.376 5.376 0 00.7-2.6l.355-.432c1.433.894 6.721 6.421 7.925 7.417.217.614 1.818 3.242 2.032 3.853.638 1.686 1.738 4.912 2.231 6.769.437 2.1-1.888 5.972-2.67 6.919a24.718 24.718 0 01-2.5 1.27 2.8 2.8 0 00-1.712.32c.171.141.532.586.788.8.089.071 5.189 2.836 5.935 3.163a6.993 6.993 0 00.942-.961c.5-.6 8.31-10.232 8.169-12.519-.02-1.031-1.269-5.829-.7-6.52.144-.171.217-.259.62-.217l.339-.587 2.411 1.993c.429.355 2.738 1.247 3.082 1.528 2.839 2.35 5.162 7.6 5.9 10.389a17.27 17.27 0 01.971 2.683 6.354 6.354 0 01-.771 3.565c-.427.516-3.754 1.39-4.11 1.819-1.3 1.392-2.094 2.183-7.038 6.066l.546.738 8.822 6.857 6.4 4.709c1.1.766 5.282 4.654 6.228 5.436a3.006 3.006 0 001.837.936 2.411 2.411 0 011.042.138c.561.9 1.673 2.54 2.319 3.508a26.381 26.381 0 011.08 4.658l.192 8.71c.1.228-.5 3.933-1.139 4.709-.284.345-2.846 3.446-5.037 2.938a19.956 19.956 0 01-4.859-2.71l-.809-2.7a37.08 37.08 0 00-3.336-4.206c-.607-.5-3.3-2.146-3.817-2.573-1.724-1.423-1.894-1.566-3.1-1.689l-.274-.369.6-.376-.343-.285a2.161 2.161 0 01-1.99-.047c-.9-.313-4.548-.279-7.062-.043a7.149 7.149 0 01-.9 1.434c-1.424 1.721-3.27.63-5.164-.935a6.043 6.043 0 01-1.18-1.556l-.318.031a48.9 48.9 0 00.4 5.833c.021 1.029-.052 1.116-1.331 2.664-1.424 1.725-5.83-1.187-6.933-1.958l-7.631-5.142a12.1 12.1 0 00-.121 4.532l.861.712 7.564 6.1c.429.355 3.712 2.342 5.2 2.12a3.388 3.388 0 012.414.407l.562.025c.278 1.242 3.112 6.05 3.377 7.135.579 1.93.749 4.532-.392 5.909s-5.248-.134-6.457-1.131c-1.808-1.492-9.544-8.611-11.267-10.035a47.3 47.3 0 00-6.008-3.949c-2.8 3.044-3.086 3.386-2.147 4.17.523.428 2.346 2.078 2.773 2.433.694.571 4.059 2.631 4.664 3.128l9.011 7.156c.17.14 2.988.586 3.565.767.477.83 3.192 4.381 3.508 5.224a39.953 39.953 0 011.652 3.968c.259 1.084.615 3.986-.806 5.708a5.289 5.289 0 01-3.229 1.1c-.659-.253-3.408-.786-3.924-1.214l-1.476-1.365c-.176-.143-1.094-.611-1.109-.766l-7.109-7.179-5.788-5.8c-.173-.144-2.718-2.676-4.35-4.03a22.188 22.188 0 00-3.226-2.23c-.07.087-.514.447-.582.531-1.5 1.808-5.622 6.8-9.019 8.632a29.005 29.005 0 01-4.366 1.606c-1.3.52-6.106.9-7.827-.524a2.119 2.119 0 01-.648-.969c-.214-.616-.856-3.172-1.062-3.629a30.416 30.416 0 00-.889-11.022c-.117-.387-.293-2.271-.38-2.344-1.855-2.838-2.982-4.634-2.357-6.439a17.7 17.7 0 001.75 1.736c1.292 1.069 7.216 4.945 8.332 5.872 1.813 1.495 1.982 1.634 2.743 1.246a13.987 13.987 0 003.4-3.419 43.231 43.231 0 00-7.8-5.285l-8.74-4.324c-.661-.257-5.187-1.969-6.705-2.061-4.593-4.085-5.92-8.084-7.373-12.468a37.713 37.713 0 01-1.633-3.811c.081-.8.16-2.475.189-3.033a1.265 1.265 0 01.684-.3c.5.271 2.441 2.309 2.945 2.576l7.96 5.274 13.832 8.678 8.135 5.416a26.171 26.171 0 012.64 1.89c1.119.925 1.373 1.137 2.088.275.143-.168 1.392-2.035 1.677-2.38l-.274-.37-7.685-4.9c-1.018-.7-6.708-3.8-7.83-4.729-.344-.286-3.394-4.835-3.9-6.849-.161-.856-1.848-4.425-1.927-5.212a16.811 16.811 0 01-.241-3.387l.145-.173a4.423 4.423 0 011.348.825c.684.568 3.519 3.634 4.279 4.115l9.074 5.325a26.39 26.39 0 002.47 1.748 23.474 23.474 0 012.42 1.277l7.141 5.033a.724.724 0 001.017-.175c.565-.691.946-2.552.43-2.98a25.719 25.719 0 00-2.911-1.387 62.1 62.1 0 01-8.69-5.439c-.17-.145-5.51-4.555-7.01-7.824l.215-.258 1.918 1.007c1.09.61 6.174 2.35 7.249 2.8l8.334 3.411 9.228 3.566c2.879 1.074 7.348 3.031 10.159 4.189l.229-.1.211-.26-4-2.87-6.1-4.022a17.04 17.04 0 00-6.234-2.978c-.312.03-1.73-.708-1.959-.6l-.573.687a19.437 19.437 0 01-3.275-.242c-.6-.5-4.133-7.62-2.552-11.816-.452-2.26.454-4.409 1.69-6.431.1-.643.874-3.334.74-3.878-.564-.9-1.438-2.639-1.915-3.467a7.906 7.906 0 002.435.561 38.794 38.794 0 013.749 1.944l4.656 3.843c.355.442 2.52 1.5 2.952 1.859a19.3 19.3 0 003.582 2.675l8.879 4.868 7.686 4.9c.841.554 4.346 3.157 5.033 3.725l.915-.4c.888.152 1.216.279 1.5-.064a4.4 4.4 0 00.452-1.075c-1.2-.839-5.481-4.239-6.829-5.064l-9.636-6.222-9.377-6.011c-.089-.07-.888-.153-.974-.222s-4.931-2.626-5.532-3.123c-1.122-.927-4.759-5.817-5.7-6.6l-1.21-.995a38.565 38.565 0 01-2.058 4.244c-.351.429-4.5 4.394-4.94 4.752-5.147 3.427-6.046 3.988-10.1 4.69-5.078.882-5.317.826-6.436-.1a7.032 7.032 0 01-1.092-8.146c1.077-2.007 2.783-4.947 2.915-6.863a.436.436 0 01.126-.332c.5-.6.588-.53 2.862.047.812.238 11.534-1.336 14.31-4.694.4-.832 1.5-2.523 1.9-3.356a8.459 8.459 0 00-.135-1.416c-.029-.312.2-.413.5-.6zm32.622 44.338c-.243-.055-1.051-1.012-1.22-1.152-.344-.284-1.334-.668-1.435-.9a53.728 53.728 0 00-8.82-5.981l-7.826-4.728-1.037-.857a1.434 1.434 0 00-1.233-.439c-.527 1.163-1.628 3.727-1.87 4.543a16.557 16.557 0 001.356 1.7c.256.213.413.2 1.648.637.569.183 10.379 6.547 11.4 7.246.433.355 2.916 2.26 3.416 2.53.987.384 1.289.2 5.652-2.282zm8.487-15.006c.489.109 2.819-.427 3.218-.388a8.973 8.973 0 002.443-.152l10.186-2.159 1.216-.593a5.685 5.685 0 00-.785-3.256 1.857 1.857 0 01.091-1.518c.145-.174.455-.2.6-.376.829.4 2.763 1.563 3.926 2.086.516.428 3.894 4.23 3.759 7.023a11.685 11.685 0 00.3 4.018c.031.313 1.175 4.884-.811 7.295-.924 1.119-1.586.865-2.171.524a9.815 9.815 0 01-3.566-.771c-.57-.183-2.912-2.262-3.481-2.446a60.361 60.361 0 00-5.924-3.005 13.552 13.552 0 01-4.883-2.155c-.344-.284-1.784-2.05-2.131-2.336s-.93-.625-2.138-1.622zm13.5 21.005l-6.714-5.548c-3.444-2.846-3.791-3.129-5.125-3.8a18.5 18.5 0 002.558 5.154 10.028 10.028 0 01.818 11.979 28.39 28.39 0 016.486-2.757 5.712 5.712 0 002.636-1.444c.217-.257 1.053-1.448.689-1.891z"/></g></g><g id="组_45" data-name="组 45"><g id="组_44" data-name="组 44"><path id="路径_21" data-name="路径 21" class="cls-2" d="M347.006 1193.327l15.131 4.6c.488-.76 2.121-3.943 2.458-4.649l.041-.351 4.692-10.387c1.153-2.42-.541-4.587-1.978-6.505a23.4 23.4 0 01-2.151-5.1l.292-.358a3.636 3.636 0 001.556.371c1.042-.372 1.192-.427 1.8-.136l.439-.409.86.531c.346-.206 2.138-.592 2.481-.8a12.739 12.739 0 011.967.812c1.314.622 1.565.867 3.721 3.624.411.439 2.847 2.591 3.209 3.135 2.206 2.653 5.706 8.031 4.556 10.453-.142.3-.39.557-1.227 1.272-.547 2.46-7.013 11.634-7.774 13.747l9.176 3.866 5.339 2.294.342-.458a18.589 18.589 0 012.35.005l.84-.467 1.3.123.247-.256.194-.4c2.425 1.4 2.692 2.393 3.063 3.437.06.4 8.754 10.469 10.1 12.594.88 1.53 2.37 5.949 1.31 8.167-.526 1.11-.87 1.318-4.336 3.136l-1.6-.021c-1.933.69-2.23.8-3.085.512-.8.366-3.433 3.316-4.125 3.729-.5.26-2.466 1.549-2.862 1.858-.692.413-3.761 1.673-4.356 2.132a4.358 4.358 0 01-.837.467 4.514 4.514 0 01-.305 2.456 2.365 2.365 0 01-1.024 1.121c-1.342.473-1.493.527-2.025 1.14a3.535 3.535 0 01-1.6-.02c-1.116-.529-5.18-4.2-6.2-4.673l-8.325-4.086c-.8-.381-9.359-3.461-10.367-3.691l-6.079 10.965-3.633 5.569-5.787 8.012c-3.312 4.613-3.555 4.865-8.247 7.709-.542.359-2.964 1.806-3.265 1.662-.81-.384-.275-3.841-.143-4.644-.052-.147 3.215-9.359 3.406-9.763l3.655-9.518 6.214-14.361-.806-.386-9.3-2.813-3.625-1.479c-.543.36-2.965 1.558-3.806 2.023a8.046 8.046 0 01-2.108-.5c-1.007-.482-1.474-1.072-4.1-4.916a36.817 36.817 0 01-2.365-3.352c-.958-2.933-.654-5.136 0-9.9.088-.7 1.069-3.817 1.213-4.371l2.256-12.289c.582-3.309.43-3.507-1.731-6.51a24.662 24.662 0 00-3.172-3.738c-1.227-1.323-.985-1.828-.7-2.433 2.593-.253 2.945-.207 4.559.561 3.631 1.725 4.035 1.917 5.409 3.189.557.39 3.242 2.036 3.75 2.525a17.76 17.76 0 002.3 2.453c.7.335 4.266.916 4.917 1.1zm-.217 26.986l4.022 1.171 4.888-10.292c.294-.6 1.647-2.93 1.887-3.434a3.375 3.375 0 00.374-1.307c-1.816-.614-19.06-5.968-19.853-5.6a13.381 13.381 0 01-.8 4.81c-.568 1.712-3.711 9.371-3.729 10.971zm18.211 5.938l14.313 6.063 6.85-7.381a33.544 33.544 0 012.138-2.943c.193-.4.927-1.167 1.218-1.771a8.632 8.632 0 00.265-1.606l-1.267-.724-8.174-3.889a67.376 67.376 0 00-7.445-2.551c-.05.1-2.706 4.649-2.8 4.855l-5.109 9.696z"/></g></g><g id="组_47" data-name="组 47"><g id="组_46" data-name="组 46"><path id="路径_22" data-name="路径 22" class="cls-2" d="M425.032 1286.736l12.091 1.1 3.326.453 8.675.512a9.9 9.9 0 001.775.248 3.249 3.249 0 001.03-.02c.267-1.883.874-6.547 1.236-8.3.091-.435.731-2.472.822-2.909.045-.22.064-.327-.194-.724-.681-.025-6.861.086-7.738-.094-3.282-.67-4.267-.87-7.108-2.59-1.313-.838-6.31-5.39-7.384-6.292a5.126 5.126 0 00-2.2-2.616l.066-.328c.33.067 7.185.552 8.3.665a30.244 30.244 0 003.549-.076l8.5.821a49.189 49.189 0 006.243-.436c.154-.765 1.122-7.182 1.126-8.321-3.263-.779-3.59-.846-5.081-.238-4.6-.936-8.027-4.258-11.233-8.1-2.747-3.3-3.119-3.717-2.542-5.99a4.639 4.639 0 011.253.026c.109.02 2.583.754 3.127.866a7.218 7.218 0 001.685.115 23.509 23.509 0 003.964 1.264l10.689.7 9.635.253c1.362.051 7.5.161 8.744.185.46-.017 2.349-.886 2.808-.907 2.257-.453 2.607-.494 3.62-1.542.528-.352.748-.307 1.225.135 1.422.289 5.164 2.647 5.75 3.112a4.888 4.888 0 003.063 1.762c.594-.676 3.65-3.358 4.242-4.038a21.647 21.647 0 003.57-5.2c.088-.439-.324-.638-2.845-1.149a13.277 13.277 0 00-2.124-.206l-9.107-1.173a34.768 34.768 0 00-4.732-.851c-2.082.146-11.256-1.267-13.075-1.3-2.036-.072-9.728-.385-11.324-.371-2.979.076-7.645-.533-10.492.027a15.454 15.454 0 01-2.217-.336c-.8-.506-4.215-3.368-5.043-3.765-.181 1.444-1.829 7.837-2.005 8.713a14.935 14.935 0 01-1.947 5.643c-.508.809-1.924 4.4-2.475 4.855-2.792 1.94-4.127 2.923-5.771 2.586-7.226-1.472-6.7-12.995-6.524-13.869a14.928 14.928 0 014.249-4.607c.418-.371 1.784-2.6 2.094-2.995a10.256 10.256 0 00.877-.96l3.449-8.531c.443-1.053.247-1.2-.1-1.731-.372-.417-1.638-2.614-2.007-3.031l.045-.221a10.04 10.04 0 013.814-.248c.767.156.829.4 1.594 1.694a21.759 21.759 0 011.57 1.8c1.675 2.963 1.741 3.2 4.364 3.739.88.178 22.035 1.528 22.786 1.225l.2-.417 1.226-11.609c.158-1.334-.717-2.08-2.506-3.928-.2-.157-3.4-4-3.268-4.657.111-.546 1.2-.327 1.316-.3l.417-.373a1.538 1.538 0 001.6-.014 8.781 8.781 0 003.354.34 34.7 34.7 0 014.381-.245c.44.088 1.987 1.433 2.425 1.521a2.257 2.257 0 011.509.993c.087.13 3.319 2.156 3.777 2.706.855.858 4.547 4.006 5.311 4.731.392.306 1.152 2.743 1.413 3.137a10.377 10.377 0 01-.1 2.147 3.427 3.427 0 01-2.375 1.569c-.329.5-2.561 5.864-2.653 6.3a.414.414 0 00.352.525c.436.09 2.672.316 3.108.407l.659.134 8.955 1.368c.789.048 4.049.825 4.732.852 5.869.283 6.435.285 7.362-.892l.239-.066.926-.61c.436.087 3.787.43 4.113.494.114.024 3.218 1.57 3.8 2.6 2.226 3.076 2.6 3.493 5.868 7.581a7.063 7.063 0 011.015 3.4c-.025.677 0 5.017.026 5.475a14.074 14.074 0 01-1.256 1.686 6.478 6.478 0 00-2.833 1.586c-.791.523-1.141.566-3.965.447a7.828 7.828 0 00-2.6-1.215l-9.666.424c-.35.042-2.018.387-2.366.43a7.019 7.019 0 01-3-.384l-.791-.047a3.536 3.536 0 00.451 2.26 3.256 3.256 0 01.277 1.993 5.664 5.664 0 01-1.563 2.646c-.508.239-3.006 1.324-3.029 1.435-.464.018-5.192-.26-6.2-.352-4.161-.279-5.828.065-9.876-.759-1.645-.336-2.149-.1-2.587.384.561 1.711.841 2.567.707 3.224-.065.329-.926 1.749-.968 1.966a27.463 27.463 0 00-.822 2.913 1.348 1.348 0 00.06.809 13.469 13.469 0 005.172-.2c.859-.854 3.119-1.3 4.912-1.735a9.878 9.878 0 014.27 2.008c.306.178 1.747.928 2.052 1.1 1.378 1.078 5.131 5.6 4.594 8.232-.2.988-2.75 2.291-4.87 2.087-4.6-.369-5.061-.347-9.269-.408l-.064.33.368.417c2.56.861 9.916 3.388 8.486 10.395a3.716 3.716 0 01-2.9 2.487l-.221.525a16.246 16.246 0 00-3.263.36c-.526-.221-3.263-.779-3.744-1.22-1.662-1.364-3.52-7.331-4.519-10.268a3.439 3.439 0 00-.83-.968 7.028 7.028 0 01-.542-1.253l.221-.524a5.553 5.553 0 00-1.353-.618c-1.1-.223-1.231.433-1.364 1.091s-1.459 3.235-1.57 3.785c-.271 1.314-1.911 6.565-2.265 7.745l9.021 1.612c.437.089 2.233.8 2.67.886.326.067 2.012.182 2.344.25l9 1.15c1.01.091 1.252.027 1.712-.563a17.279 17.279 0 013.178-.49 1.957 1.957 0 011.484 1.1l.635.245c1.048 1.582 5.677 5.717 7.621 7.367 3.187 2.817 3.971 5.14 3.883 5.58-.494 2.408-4.71 5.2-7.231 4.683a61.753 61.753 0 01-12.664-5.547 41.63 41.63 0 00-6.845-2.763l-7.248-1.932-6.236-1.269-9.154-1.526c-.986-.2-5.346-.633-6.327-.832-.222-.047-1.188-.357-1.293-.381l-9.111-.6-7.366.9c-1.95.626-2.677.822-3.659.622-4.818-.983-11.149-6.837-12.587-9.293a5.1 5.1 0 00-1.55-1.911 12.945 12.945 0 01-3.051-4.043 1.411 1.411 0 01.857-.281c.327.064 1.725 1.032 2.057 1.1z"/></g></g><g id="组_49" data-name="组 49"><g id="组_48" data-name="组 48"><path id="路径_23" data-name="路径 23" class="cls-2" d="M528.843 1271.629a19.137 19.137 0 012.638-1.014c.338-.017 2.459 0 2.572-.006.226-.009 1.549-.294 1.774-.305.668-.029 4.051.6 4.276.589s5.667-.706 6.334-.848l9.646-1.779 3.652-.724 13-1.82.214-.235a25.178 25.178 0 00-.479-5.568l-.9-.07-9.55 1.441c-2.109.317-2.109.317-3.435 3.062a6.3 6.3 0 01-2.191.995 23.859 23.859 0 01-2.73-.993 4.525 4.525 0 01-1.232-.058c-.339-.1-1.488-.827-1.833-.924l-.432.246c-.475-.537-2.566-2.344-2.92-2.777-.245-.434-2.207-4.259-2.341-4.7l-2.578-10.054-.483-.762c-5.846-3.2-6.077-3.3-7.058-5.268 1.006-.045 5.757-1.156 6.651-1.2.781-.037 4.391.694 4.5.688 1.007-.045 6.221-.842 6.333-.845a5.473 5.473 0 002.216-.437l10.764-1.719c.673-.031 3.877-.847 4.547-.875 1.34-.062 1.672-.078 1.465-2.08l-.8-10.249c-.051-1.116-.4-3.784-2.095-4.264a14.6 14.6 0 01-5.571-2.095l2.754-.907c1.042-1.724 3.495-1.836 4.05-1.863 3.907-.176 17.733 6.463 17.9 10.145a13.963 13.963 0 01-.334 2.473 18.319 18.319 0 00-1.317 3.078c.009.109.055 3.576.169 3.681s.121.218.345.207l14.27-.872.329-.126c.324-.238 1.182-1.059 1.619-1.3a.946.946 0 00.187-.791 4.251 4.251 0 011.648-.636 13.5 13.5 0 018.192 3.208 33.627 33.627 0 004.358 2.374c1.727 1.147 3.953 3.4 4.057 5.629s-2.4 3.8-4.3 3.882l-.429.355-1.15 4.189c.136.554 1.356 2.844 1.383 3.4.126 2.788-2.884 2.927-4.784 3.011-3.344.154-18.314.276-21.44.417a34.883 34.883 0 00-3.549.719 1.086 1.086 0 00-.4 1.025c.034.781-.038 4.136-.006 4.808a2.2 2.2 0 00.386 1.1l10.8-.938c1.67-.186 9.614.013 10.705-.71a5.549 5.549 0 013.362-2.166c4.575-.207 12.815 3.893 15.061 6.7.357.432 2.1 1.8 2.23 2.246a2.884 2.884 0 01.284 1.329c.115 2.566-2.288 3.791-4.389 4.336l-.188.792-.329.126a3.368 3.368 0 01-.6 1.481 86.766 86.766 0 00-1.891 2.768 10.453 10.453 0 001.1 1.85 11.124 11.124 0 01.768 2.2c.023.558-1.191 3.3-5.208 3.477-1.118.053-5.835-.516-7.186-.679a54.523 54.523 0 00-5.709-.187l-8.389-.064c-1.118-.062-5.905.49-6.906.536-2.007.091-2.233.1-2.268 1.668.039.892-.561 4.946-.523 5.725a25.093 25.093 0 01-.439 5.163l-.233 7.164c-.261 1.578-.9 4.847-1.464 7.111a24.423 24.423 0 01-3.542 5.747 2.7 2.7 0 00-.523.808c-2.825-.654-3.74-3.631-4.417-6.282a43.485 43.485 0 01-1.439-6.978l-.694-7.906-.643-9.248-.354-.431-10.415 2.148c-.994.158-6.1 1.059-6.426 1.188-1.239 2.289-1.558 2.641-2.528 3.357-4 .517-4.121.41-9.981-3.125a21.64 21.64 0 01-2.852-1.211 8.374 8.374 0 01-3.241-4.884l-2.659-9.381c-.533-1.874-.877-2.084-4.217-4.28a18.5 18.5 0 00-2.54-1.674zM555 1283.854l11.861-2.1 5.108-.792c1.226-.056 1.547-.406 1.52-.963-.069-1.563-.276-3.564-.35-5.236l-6.679.637-9.2 1.647c-.557.137-3.661.725-3.883.737l-3.234.146a1.751 1.751 0 00-.158 1.461l.577 2.879c.469.425.7.638.982 1.966zm1.656-29.923l1.223-.164 14.077-2.656-.207-6.921c-.777.036-4.888.668-5.993.943-1.219.168-7.071 1.774-7.518 1.8-.557.024-3.04-.533-3.607-.618.288 1.44 1.267 5.756 1.686 7.526zm29.275-5.131c1.676-.075 8.672-1.066 10.126-1.132a13.078 13.078 0 013.478.292c1.049-1.5 1.731-6.227 1.688-7.121l-2.692-.212-9.585.656-2.436.449-.445.13-.273 6.274zm2.019 29.532l12.136-1c.334-.014 1.772-.414 2.1-.429.671-.03 3.48.287 4.038.261.594-1.7.765-2.827.841-6.183l-.231-.1-11.617.3c-.446.022-7.427 1.343-7.539 1.352-.436.24-.344 4.6-.332 4.931 0 .112 0 .112.256.773z"/></g></g><g id="组_51" data-name="组 51"><g id="组_50" data-name="组 50"><path id="路径_24" data-name="路径 24" class="cls-2" d="M643.324 1264.758a18.977 18.977 0 012.311-1.629c.32-.095 2.383-.6 2.495-.63.215-.065 1.433-.664 1.643-.729.647-.193 4.08-.406 4.295-.472s5.326-2.065 5.937-2.367l8.921-4.078 3.372-1.594 12.164-4.935.149-.277a25.245 25.245 0 00-1.815-5.287l-.892.15-8.914 3.727c-1.965.823-1.965.823-2.586 3.81a6.309 6.309 0 01-1.88 1.5 23.267 23.267 0 01-2.893-.3 4.584 4.584 0 01-1.208.247c-.358-.01-1.65-.439-2-.448l-.364.342c-.583-.406-3.057-1.649-3.509-1.981-.341-.362-3.175-3.591-3.412-3.988l-4.955-9.127-.652-.622c-6.455-1.679-6.7-1.721-8.135-3.39.962-.289 5.3-2.526 6.163-2.783.75-.225 4.431-.4 4.536-.429.963-.289 5.831-2.333 5.94-2.366a5.5 5.5 0 002.045-.962l10.021-4.293c.646-.193 3.558-1.766 4.193-1.959 1.29-.386 1.607-.483.923-2.375l-3.279-9.749c-.32-1.069-1.306-3.571-3.071-3.626a14.59 14.59 0 01-5.919-.674l2.455-1.551c.587-1.926 2.942-2.632 3.476-2.792 3.744-1.124 18.779 1.942 19.84 5.472a13.534 13.534 0 01.277 2.483 18.506 18.506 0 00-.524 3.306c.031.108.92 3.456 1.062 3.531s.17.181.382.117l13.634-4.326.289-.2c.258-.311.885-1.314 1.251-1.656a.949.949 0 00-.012-.814 4.265 4.265 0 011.445-1.019 13.506 13.506 0 018.733 1.111 32.714 32.714 0 004.8 1.241c1.961.7 4.672 2.332 5.312 4.472s-1.4 4.27-3.221 4.816l-.333.45-.091 4.344c.267.5 2.008 2.428 2.169 2.963.8 2.675-2.087 3.543-3.9 4.089-3.212.963-17.708 4.732-20.7 5.633a32.7 32.7 0 00-3.268 1.562 1.083 1.083 0 00-.137 1.092c.224.748.975 4.022 1.163 4.663a2.17 2.17 0 00.644.974l10.249-3.543c1.571-.589 9.333-2.334 10.206-3.3a5.575 5.575 0 012.739-2.922c4.39-1.315 13.376.651 16.245 2.824a19.987 19.987 0 012.709 1.635 2.889 2.889 0 01.6 1.22c.737 2.459-1.294 4.237-3.2 5.276l.011.813-.29.2a3.266 3.266 0 01-.223 1.585c-.27.663-.844 2.235-1.154 3.148.093.319 1.339 1.348 1.509 1.527a11.015 11.015 0 011.285 1.949c.158.534-.354 3.489-4.206 4.643-1.069.322-5.788.924-7.137 1.094a53.921 53.921 0 00-5.586 1.212l-8.151 1.979c-1.107.214-5.608 1.915-6.572 2.208-1.925.575-2.14.64-1.795 2.17.259.855.664 4.933.888 5.681a25.229 25.229 0 01.838 5.115l1.517 7.01c.128 1.595.316 4.924.313 7.253a24.651 24.651 0 01-2.03 6.443 2.488 2.488 0 00-.31.911c-2.9.052-4.515-2.613-5.823-5.017a42.842 42.842 0 01-3.091-6.422l-2.6-7.5-2.881-8.817-.452-.332-9.574 4.625c-.933.4-5.656 2.516-5.949 2.722-.64 2.522-.865 2.942-1.633 3.871-3.756 1.477-3.9 1.4-10.446-.6a21.352 21.352 0 01-3.06-.481 8.394 8.394 0 01-4.336-3.947l-4.869-8.451c-.972-1.691-1.357-1.81-5.136-3.125a18.62 18.62 0 00-2.866-1.005zm22.671-23.953l1.144-.46 13.01-6.005-1.886-6.668c-.751.224-4.575 1.843-5.585 2.377-1.143.461-6.431 3.449-6.855 3.574-.538.163-3.086.227-3.651.283.63 1.325 2.632 5.273 3.469 6.889zm5.689 29.436l10.993-4.938 4.767-2.012c1.177-.351 1.4-.771 1.239-1.3-.451-1.5-1.133-3.394-1.618-5l-6.322 2.248-8.528 3.843c-.506.268-3.37 1.595-3.588 1.66l-3.1.931a1.753 1.753 0 00.206 1.455l1.267 2.652c.552.3.835.449 1.434 1.672zm21.466-41.555c1.6-.48 8.152-3.145 9.544-3.564a12.867 12.867 0 013.441-.567c.652-1.714.16-6.465-.094-7.321l-2.664.451-9.139 2.977-2.259 1.027-.4.237 1.267 6.152zm9.153 28.161l11.537-3.928c.317-.1 1.613-.837 1.932-.931.644-.193 3.447-.568 3.981-.73.16-1.8.055-2.932-.7-6.205l-.246-.043-11.191 3.126c-.427.128-6.88 3.117-6.986 3.147-.363.343.786 4.548.874 4.869.035.106.035.106.445.685z"/></g></g><g id="组_53" data-name="组 53"><g id="组_52" data-name="组 52"><path id="路径_25" data-name="路径 25" class="cls-2" d="M755.839 1194.106l1.821-11.6a9.854 9.854 0 00-.327-3.834c-.74-1.249-3.1-.628-4.343-1.191-.363-.172-1.812-.87-2.119-.946l-.08-.347a21.108 21.108 0 013.893-3.736c2.974-1.767 3.934-1.687 9.522-.586a20.192 20.192 0 002.514-.583c2.8-.1 5.474.91 6.781 3.77a2.269 2.269 0 00-.408 1.932l-.505.69-2.467 10.945-2.7 8.36c-1.519 4.669-6.008 17.464-12.54 21.341a19.018 19.018 0 01-7.446 2.338 7.616 7.616 0 01-1.494.11 1.7 1.7 0 01-1 .07c.6-1.4 4.577-7.392 5.083-8.733.21-.515 3.621-8.122 3.682-8.678zm25.908 34.248l.3-11.091-.064-2.3-.491-8.931c-.107-2.145-.277-5.94-.395-8.989a4 4 0 00-2.028-1 9.348 9.348 0 01-3.826-1.629c.024-.4-.034-.5-.355-.826l.131-.209c.1-.056.883-.265 1.073-.377.1-.057 1.138-.935 1.332-1.047a8.636 8.636 0 002.675-2.5 11.554 11.554 0 011.327-1.047 5.02 5.02 0 013.816-.575c1.013.177 5.8-.068 6.918.052 3.33.362 4.288.444 5.313 2.171.511.867.7 1.4 1.818 3.727-.519 1.09-3.132 6.537-3.138 7.189l-1.287 9.209-.846 7.773c-.095.711-.688 3.657-.691 4.31l-.435 7.142a15.023 15.023 0 01-1.755 6.238c.037.5.09.6.549.71l2.113-1.254c.1-.056 3.309-2.743 3.407-2.8.671-.4.863-.514 1.905-2.04.328-.326 4.329-3.217 4.829-3.905a5.826 5.826 0 001.1-1.432l2.978-2.416c.9-.666 2.1-1.5 2.864-1.959a104.24 104.24 0 0011.053-7.21 11.208 11.208 0 00-3.152-2.026l-7.014-3.5a78.265 78.265 0 01-6.708-4.074c-.76-.848-.972-.983-3.092-1.932a25.41 25.41 0 014.106-.748 7.189 7.189 0 013.663-.615l8.882.965c.559.06 2.951-.064 3.41.055 6.109.663 6.667.722 8.061.672a26.405 26.405 0 019.229 1.537 24.778 24.778 0 016.959 2.757c.268.23 4.166 2.2 4.589 2.475.269.23 1.273 1.711 1.539 1.941.544 2.667 1.577 7.25.267 9.2-.219.516-1.36 2.753-1.666 3.325-.809 1.261-.907 1.317-1.486 1.661a5.186 5.186 0 01-3.852.726c-1.017-.174-1.074-.272-1.612-.085-1.112-.118-1.95-.66-5.388-2.515-.728-.349-3.576-1.647-4.208-2.052-1.374-1-2.216-1.543-2.845-1.3a24.191 24.191 0 00-2.444 1.578l-6.613 4.834c-.617.494-3.694 2.969-4.175 3.254a64.487 64.487 0 00-5.287 3.789c-.611.495-2.847 2.859-3.366 3.3s-2.871 2.608-3.3 2.991l-9.975 10.335a9.721 9.721 0 00-1.988 3.649c-1.127 3.136-1.3 3.5-1.881 3.842a12.862 12.862 0 01-6.61.676c-4.069.594-4.374.516-7.394-.419-.308-.078-2.072-.2-2.283-.338a7.451 7.451 0 01-3.7-2.738c-.509-.865-.509-.865-.93-1.135a10.17 10.17 0 01-1.511-.793 13.28 13.28 0 01-.792-1.995l.359-.478c1.784.371 2.074.2 4.818-1.3.887-.916 6.041-5.146 6.1-5.7.2-2.717.465-5.342.629-7.908zm-12.317-66.734a18.554 18.554 0 011.465-1.909c.366-.477 2.594-2.189 3.02-2.573l.291-.168c1.727-1.026 8.294-3.752 10.608-2.918a18.486 18.486 0 002.926.99c.517.214 3.018 1.585 3.478 1.7a20.324 20.324 0 003.712.787l12.841 3.03 10.434 2.257c1.013.178 5.815 1.483 6.832 1.662 2.774.3 10.912 1.319 11.823 2.856a1.23 1.23 0 01-.237 1.572c-1.348.8-6.788 5.2-8.038 5.934-.577.346-2.42 1.177-3 1.52-.092.056-1.8 1.332-2.19 1.559-.483.286-2.858.659-3.243.887-1.226-.316-6.607-1.279-7.678-1.553-1.738-.526-4.893-1.9-5.3-1.922l-12.411-5.37-.992-.578-16.478-7.63a2.357 2.357 0 00-1.607-.084 8.747 8.747 0 01-2.265.562c-.611-.155-3.373-.207-3.886-.42z"/></g></g><g id="组_55" data-name="组 55"><g id="组_54" data-name="组 54"><path id="路径_26" data-name="路径 26" class="cls-2" d="M842.931 1113.4l.237-.234 6.4-7.677 1.434-1.407 8.785-9.547c.8-.94 4.394-4.775 5.192-5.556 3.749-3.675 4.228-4.145 3.146-6.368.236-.233.558-.864.717-1.018a20.814 20.814 0 014.529-2.721c.953-.306 1.746-.614 2.542-.922l.468.321c.713-.228 1.03-.225 3.95-.118.947.168 5.061-.581 5.932-.494 2.369.187 2.918.584 3.462 1.142 1.095 1.117.68 2.929.028 5.135a6.428 6.428 0 00.773 1.9l.786.324c.388.559.779.955 4.3 4.547.234.239.933 1.431 1.165 1.67.473.48 2.27 2.155 2.663 2.554s2.027 2.707 2.264 2.946l5.863 5.985c.466.476 2.577 2.789 3.047 3.267a2.175 2.175 0 011.022.566c.233.236 1.015 1.352 1.169 1.512.785.8 2.976 2.56 4.152 3.6.153.161 2.5 2.713 2.969 3.188l7.032 7.5c.39.4 2.111 2.314 2.5 2.712s2.03 2.547 2.417 2.947c2.657 2.714 3.754 3.831 3.977 4.859a62.775 62.775 0 011.6 6.1c.076.555.686 2.772.678 3.245-.082.554-.055 5.846-1.176 6.942-.159.154-3.423 2.728-8.935 1.093-.553-.241-3.145-1.612-3.7-1.537-.39-.082-2.134.372-2.53.29a14.036 14.036 0 00-7.66 0 40.171 40.171 0 00-3.819 2.489l-1.66.222.641-1.1 7.589-8.06c1.438-1.563 3.755-4.148 4.565-6.035l-7.505-7.819c-.161-.159-2.029-2.388-2.423-2.788-.234-.24-4.145-3.911-4.225-3.993-.624-.639-3.509-4.223-3.9-4.619l-7.2-7.025-3.128-3.192-10.405-9.821a977.206 977.206 0 01-6.729-6.389c-.7-.4-1.022-.562-1.262-.327l-8.467 9.234-6.714 7.991c-2 2.428-6.485 8.544-8.329 11.29-.8 1.255-4.72 5.878-5.439 6.9a36.6 36.6 0 01-2.566 3.925c-.322.312-13.007 4.765-16.645 5.361-.633.151-3.159-.348-3.709-.274-.076-.4-.391-1.031.172-1.578 1.039-1.015 6.207-4.675 7.087-5.536.4-.391 2-2.588 2.4-2.979zM854 1135.388l7.624-11.535c.4-.548 2.317-2.9 2.639-3.37.485-.943.328-1.1-.519-2.928a10.192 10.192 0 01.723-1.651c.083-.078 1.749-1.4 2.071-1.715 1.516-1.486 1.992-1.64 6.348-2.937.4-.077 1.985-.851 2.382-.927 2.61-.524 4.588-.585 6.227 1.093a2.664 2.664 0 01.524 3.084 30.548 30.548 0 00-1.7 4.011l-7.273 8.378-5.367 7.133c-.638.943-4 5.016-4.636 5.8-.724 1.177-4.25 6.038-4.8 6.586-.241.232-7.235 4.429-9.609 4.721-1.264.145-8.064.709-8.376.388l-.158-.159a6.847 6.847 0 011.842-2.43 23.447 23.447 0 011.833-1.48 24.394 24.394 0 002.385-1.557 15.257 15.257 0 001.68-1.957zm-1.5 31.185c.4-.39 2.235-2.662 2.317-2.739l3.272-3.2c.318-.314 1.989-1.323 2.228-1.56a5.978 5.978 0 00.961-1.251l8.421-12.476 4.806-6.587c.237-.392 3.2-4.548 3.447-5.1-.779-1.115-.294-1.9 1.462-3.774l-.234-.4c1.429-1.092 7.07-3.959 9.588-2.668 1.421-.3 4.346-.67 5.616-.814 3.949-.432 5.849-.571 6.709.308a6.063 6.063 0 01.8 6.245c-.888 1.65-.731 2.128.969 5.936a13.385 13.385 0 011.382 3.964c.072.552.133 1.739.212 2.133.308.321 2.284.893 2.6 1.212.154.16 1.082 2.539-1.232 4.808.15.79.144.947-.251 1.339l-7.589 8.375a6.925 6.925 0 00-1.529 2.276c-.4.548-.713.862-3.275 3.994-.4.553-1.925 2.825-2.4 3.3-.081.077-.8.782-.8.939 1.564 1.436 2.033 2.233 1.769 4.838-2.569 3.765-9.032 2.591-10.058 2.346a4.143 4.143 0 00-1.964-1.206c-.232-.082-1.417-.171-1.649-.411l-9.026-5.858c-.786-.48-4-2.8-4.708-3.208-.553-.242-2.513-1.6-4.331-1.068a11.835 11.835 0 01-5.931.492c-.399-.091-1.182-.1-1.582-.185zm32.1-2.834l7.133-9.959a22.785 22.785 0 011.444-2.355v-.315l-1.158-2.3-7.806-9.557-.237-.24c-1.113.94-4.882 6.824-5.442 7.371l-.4.391-5.69 8.079c-.561.862-1.2 1.805-.575 2.443.311.318 2.515.972 2.827 1.293a7.017 7.017 0 002.511 1.6c1.1.485 5.17 4.16 6.277 4.486z"/></g></g></g><g id="组_59" data-name="组 59"><g id="组_58" data-name="组 58"><g id="组_57" data-name="组 57"><path id="路径_27" data-name="路径 27" class="cls-2" d="M191.772 1107.486a5.161 5.161 0 01-4.106-1.9 476.317 476.317 0 01-77.5-135.141 5.164 5.164 0 019.678-3.6 466.1 466.1 0 0075.828 132.22 5.163 5.163 0 01-3.9 8.426z"/></g></g></g><g id="组_62" data-name="组 62"><g id="组_61" data-name="组 61"><g id="组_60" data-name="组 60"><path id="路径_28" data-name="路径 28" class="cls-2" d="M948.282 1076.879a5.165 5.165 0 01-4.35-8.094 465.963 465.963 0 0061.363-126.085 5.166 5.166 0 019.865 3.07 476.3 476.3 0 01-62.725 128.872 5.156 5.156 0 01-4.153 2.237z"/></g></g></g><g id="组_78" data-name="组 78"><g id="_3VZA4P.tif" data-name="3VZA4P.tif"><g id="组_66" data-name="组 66"><g id="组_65" data-name="组 65"><g id="组_64" data-name="组 64"><g id="组_63" data-name="组 63"><path id="路径_29" data-name="路径 29" class="cls-1" d="M470.045 677.05c-1.356.005-1.755-.4-1.771-1.812-.014-1.156.619-1.761 1.864-1.785a1.855 1.855 0 011.67 1.853 1.558 1.558 0 01-1.763 1.744z"/></g></g></g></g></g><g id="sDlgPo.tif"><g id="组_77" data-name="组 77"><g id="组_69" data-name="组 69"><g id="组_68" data-name="组 68"><g id="组_67" data-name="组 67"><path id="路径_30" data-name="路径 30" class="cls-1" d="M769.747 748.591a42.3 42.3 0 00-6.193 2c-5.9 1.956-11.8 3.9-17.611 5.821a11.927 11.927 0 01-1.715-2.714c-.907-3.632-3.143-3.662-6.14-2.715-2.919.923-6.267.9-8.865 2.324-3.569 1.955-8.721 4.434-9.363 7.493-.9 4.288-2.979 5.474-6.094 6.526q-31.81 10.727-63.659 21.339a17.627 17.627 0 01-2.468.485c.448-4.659 1.306-8.977 1.185-13.265-.283-9.975-3.737-15.44-13.052-17.043-.2-.035-.362-.311-.538-.474l-.072-3.67a258.043 258.043 0 0055.79-15.193c13.7-5.47 26.592-12.954 39.847-19.537 6.933-3.443 13.572-7.236 17.766-14.133.378-.621 1.251-.949 1.6-1.578.934-1.668 2.525-3.49 2.395-5.137-.452-5.789-1.391-11.551-2.381-17.282-2.482-14.375-7.994-28.009-14.824-40.468-15.639-28.531-31.584-56.987-51.052-83.244-5.224-7.048-8.672-15.509-14.344-22.11-22.985-26.746-50.674-45.315-87.18-47.58-23.043-1.43-46.005-2.363-68.114 6.276-3.674 1.435-7.467 2.56-11.14 3.989-12.581 4.895-22.147 14-31.8 22.958-10.334 9.587-12.869 20.9-7.861 33.126-4.283 4.514-8.7 8.576-12.421 13.2-11.65 14.469-20.173 30.881-27.1 47.939-7.1 17.48-12.991 35.467-19.007 53.37-4.346 12.929-8.4 25.98-11.892 39.162-2.6 9.837-1.678 19.429 6.815 26.608 3.472 2.935 7.47 5.239 11.108 7.991 10.041 7.595 22.173 9.324 33.931 10.756 11.582 1.411 23.458.4 35.2.511a12.6 12.6 0 012.813.68c-.391.991-.512 2.266-1.214 2.925-8.227 7.736-10.192 17.443-8.88 28.12a12.869 12.869 0 007.584 10.325c2.4 1.118 6.249 2.1 8.058.947 6.048-3.829 11.259-8.817 12.436-16.523 1.757-11.495-1.593-23.213-13.179-23.9-.18-.011-.342-.342-.508-.527.589-4.7 2.792-5.826 6.536-3.386 4.153 2.709 8.217 5.581 12.521 8.028 4.655 2.645 7.057 6.479 6.075 11.636a213.94 213.94 0 01-5.269 21.929c-2.209 7.312-7.734 10.624-15.3 11.2-13.393 1.016-26.74 2.763-40.144 3.411-20.383.983-45.282 21.85-47.29 45.385-.963 11.284-3.422 22.451-5.436 33.631-.7 3.862-2.389 7.543-3.122 11.4-4.574 24.091-9.137 48.186-13.437 72.327-3.252 18.248-6.045 36.575-9.167 54.846-1.032 6.037-2.144 12.093-3.769 17.988-2.441 8.848-6.06 17.306-4.3 27 .593 3.268 2.338 5.616 3.31 8.475 4.07 11.968 15.014 23.062 29.961 21.464 2.027-.217 4.1.028 6.141-.1a23.141 23.141 0 0014.32-5.7 5.668 5.668 0 012.491-1.651c6.324-.8 12.684-2.1 19.008-1.977 19.81.387 39.606 1.431 59.411 2.033 14.322.434 28.66.372 42.978.876 26.674.937 53.3 3 80.043 1.167 10.952-.751 22-.089 33.005-.1 3.838 0 7.681.031 11.508-.183 1.566-.089 3.086-1.089 4.647-1.151 2.551-.1 5.157.591 7.668.309 5.957-.671 11.873-1.713 17.807-2.61 3.4-.514 6.844-.857 10.2-1.606 2.467-.552 4.78-1.763 7.225-2.46 7.14-2.042 12.9-8.255 13.4-15.078.476-6.5 1.183-13.056.746-19.518-.919-13.518-2.029-27.062-3.984-40.461-2.157-14.776-5.354-29.4-8.084-44.093-1.544-8.31-2.909-16.657-4.618-24.934-4.542-21.992-9.214-43.958-13.864-65.929-3.03-14.317-4.9-28.9-11.764-42.225a71.573 71.573 0 00-16.2-21.179 27.962 27.962 0 00-12.459-6.264c-7.979-1.586-16.23-1.763-24.353-2.652-4.113-.453-8.195-1.178-12.291-1.781l.052-1.394a9.284 9.284 0 012.827-.017c8.422 2.7 11.983 1.608 17.712-5.063a11.9 11.9 0 014.886-3.308c12.674-4.443 25.4-8.714 38.126-13.018q16.877-5.712 33.746-11.376c2.387 5.561 4.734 7.249 10.175 6.781 4.362-.376 8.689-1.18 13.017-1.876.376-.06.762-.7.956-1.147 1.514-3.507 3.461-6.923 4.3-10.59.559-2.439 1.484-3.343 3.656-4.04 6.7-2.144 13.356-4.42 19.94-6.881 1.078-.4 1.711-2 2.547-3.047-1.322-.324-2.716-1.074-3.951-.869zM634.3 768.645a2.639 2.639 0 011.469 1.5c1.8 4.381-.477 12.309-4.66 15.749-1.05-5.686-.106-10.967 1.573-16.159a2.01 2.01 0 011.618-1.09zm-2.443-13.245c.589 1.535.214 2.945-2.2 4.35-12.252 7.124-14 21.049-10.6 34.655a30.277 30.277 0 001.352 3.535c-4.868 3.432-6.962 3.334-11.22.137-2.44-1.832-5.3-3.107-7.775-4.9-3.661-2.645-7.7-5.07-10.54-8.452-2.126-2.529-2.887-6.356-3.781-9.73a96.931 96.931 0 01-2.656-13.338c-.533-4.508-.122-8.648 4.711-11.462 2.827-1.647 4.726-4.87 7.073-7.357 1.107-1.173 2.286-2.279 3.624-3.606.345 2.905.826 5.49.929 8.09.253 6.25 3.849 9.053 10.05 8.577 6.843-.523 13.739-.356 21.033-.499zm-43.767-94.152c.427 1.2 1.409 3.232 1.409 3.232s-5.812 1.471-6.1 1.258c1.7-3.647-.116-5.726-.779-7.211a10.464 10.464 0 013.948-.414c.073.477 1.125 2.021 1.522 3.135zM483.016 769.627a14.069 14.069 0 011.5-2.763c1.056-1.1 1.542-3.989 2.356-2.763 1.46 4.57-.228 11.494-.869 12.149-1.236 1.932-5.319.473-2.987-6.623zm5.536 7.993c1.431-5.016 2.354-10.235.677-15.727 3.578.521 6.94 4.106 7.719 7.594 1.841 8.235.532 15.791-6.391 21.56-4.557 3.795-12.254 1.566-13.056-4.2-1.06-7.64-1.262-15.378 3.744-22.114.366-.492 2.105-2.187 2.105-2.187-1.073 3.316-2.942 7.683-3.646 11.075a7.28 7.28 0 00.841 5.323c2.588 3.348 6.838 2.776 8.007-1.324zm14.807-22.983c-3.233-2.487-6.965-4.345-10.084-6.951-11.135-9.314-19.581-20.181-23.347-34.826-3.613-14.049-6.369-28.092-7.145-42.548-.073-1.378-.06-2.763-.092-4.337l1.379-.211c-1.475-2.342-1.336-10.981-1.089-15.937.123-2.46 1.193-3.226 3.41-3.665 7.306-1.449 14.074.65 20.964 2.575 6.661 1.86 12.16 5.906 16.632 10.527 7.583 7.832 12.649 17.114 10.234 28.969a164.151 164.151 0 00-2.273 19.406c-.376 4.631-.406 9.884 3.979 12.477 4.923 2.912 10.168.811 14.924-1.747.364-.2.555-.711 1.206-1.589-3.9.749-7.161 1.615-10.474 1.955-4.872.5-6.314-.772-6.586-5.593a43.941 43.941 0 01.379-7.25c.931-8.376 1.873-16.75 2.95-25.107a21.578 21.578 0 00-3.863-15.266c-3.584-5.271-7.435-10.375-11.392-15.375-4.194-5.3-10.434-6.468-16.614-7.611-3.387-.626-6.759-1.627-10.165-1.76-2.933-.116-5.919.683-8.852 1.237a29.243 29.243 0 00-4.321 1.68c1.1-6.186 1.529-11.7 3.113-16.86 4-13.032 8.636-25.865 12.784-38.852 2.531-7.916 8.459-11.77 15.955-12.228a297.758 297.758 0 0132.438.156c3.23.153 6.424 2.269 9.514 3.741 3.4 1.617 4.974 4.736 5.559 8.268 2.687 16.209 9.663 30.5 19.4 43.537 1.8 2.411 4.211 4.368 6.318 6.556 1.01 1.049 1.966 2.148 2.7 2.962-6.744 2.417-13.227 4.6-19.57 7.128a6.377 6.377 0 00-3.267 3.618c-.756 2.474.319 4.13 3.271 3.092 6.248-2.2 12.506-4.38 18.683-6.765 4.193-1.62 8.262-3.525 13.086-1.415l1.292 6.5c-14.039-.982-25.7 3.647-34.668 14.36a9.509 9.509 0 00-2.263 4.6c6.076-5.734 11.421-9.476 17.045-11.259-.636 2.456.439 6.162 2.324 7.231-9.459 1.6-11.418 2.2-14 4.573 12.873-1.1 26.025.921 38.491-5.369 1.394 2.4 2.893 4.724 4.143 7.177 2.821 5.536 7.2 9.49 12.261 12.916a4.71 4.71 0 011.8 3.815c-1.71 8.636-3.717 17.21-5.654 25.8-.561 2.49-1.6 4.948-1.711 7.452-.28 6.154-3.046 10.769-7.351 15.009-8.875 8.741-18.131 16.881-29.981 21.33-12.33 4.63-24.771 7.072-38.246 4.953-9.178-1.453-16.255-5.716-23.226-11.079zm-4.649 54.173a14.768 14.768 0 009.465-8.365c3.146-7.506 6.144-15.074 9.446-22.512a4.488 4.488 0 013.484-2.061c9.926.345 18.906-3.8 28.27-5.942 9.779-2.236 19.251-5.74 27.4-12.025 1.2-.928 2.806-1.337 4.72-2.213l.505 26.091a37.494 37.494 0 01-4.289-2.062c-3.026-1.872-5.646-2.215-9.485-1.212-10.661 2.781-20.233 7.8-29.8 12.833-12.97 6.828-25.673 14.161-38.5 21.261-.863.477-1.8.82-2.927 1.326-1.018-2.484-1.336-4.107 1.711-5.119zM385.766 974.343c2.518-13.006 5.976-25.828 8.655-38.8 1.522-7.372 2.044-14.949 3.491-22.34 2.819-14.4 5.959-28.745 8.994-43.107 1.661-7.861 2.7-15.933 5.216-23.517 5.315-16.031 13.285-29.7 32.93-32 6.436-.754 12.888-1.37 19.334-2.05.353.348.708.694 1.061 1.04-1.75 4.243-3.872 8.376-5.148 12.757-1.343 4.614-1.844 9.471-2.771 14.211-2.764 14.141-4.874 28.472-11.229 41.632-8.934 18.5-17.806 37.032-26.986 55.41-6.4 12.806-13.623 25.206-19.828 38.1-6.133 12.746-11.433 25.891-17.146 38.84-.753 1.707-1.786 3.291-3.048 5.585-.612-1.334-.916-1.669-.87-1.947 2.4-14.614 4.532-29.281 7.345-43.814zM420 1090.851c-6.355 6.229-22.066 10.272-30.356 6.983a45.446 45.446 0 01-8.4-4.327c-5.876-3.915-6.227-10.721-8.229-16.645-.442-1.306-.607-2.824-1.39-3.879-4.3-5.789-3.695-11.573-.4-17.5a7.593 7.593 0 00.589-2.6c1.314-9.475 4.86-18.211 8.818-26.818 2.134-4.64 4.047-9.386 6.283-13.976 5.819-11.939 11.751-23.821 17.655-35.72 7.614-15.349 15.167-30.729 22.887-46.025 8.52-16.876 16.823-33.876 25.917-50.439 9.1-16.58 19.078-32.763 31.359-47.178 5.6-6.568 12.866-11.952 20.073-16.846 10.323-7.012 21.2-13.225 32-19.509 6.149-3.577 12.6-6.64 18.948-9.872a17.448 17.448 0 013.235-1c3.064-.854 6.375-1.221 9.135-2.656 3.432-1.783 6.038-1.332 9.1.691 7.775 5.135 15.719 10.013 23.6 14.982a26.061 26.061 0 0111.4 13.93c2.648 7.851 5.449 15.65 8.092 23.5a7.621 7.621 0 01-.148 2.739c-1.188-.1-3.02.255-3.453-.366a76.268 76.268 0 01-6.412-10.622 31.894 31.894 0 01-2.1-8.094c-2.228-12.473-13.251-16.517-21.856-22.833a49.931 49.931 0 00-7.731-4.2 15.4 15.4 0 00-3.253-.8l-.435 1.158c.984.605 1.928 1.3 2.961 1.8A30.235 30.235 0 01594.85 816.2c1.378 6.3 1.424 12.893 2.189 19.341.308 2.594.943 5.149 1.47 7.939-6.7-.289-9.331-2.851-9.73-9.16-.217-3.427-.785-6.833-1.064-10.259a35.666 35.666 0 01.141-4.353c-1.944-3.64-3.959-7.483-6.053-11.281a7.489 7.489 0 00-1.883-2.316c-4.054-3.108-8.117-6.214-12.328-9.1-.772-.529-2.248-.032-4.23.007 5.168 4.5 9.485 8.079 13.591 11.885 3.484 3.231 3.925 7.254 2.923 11.838-1.545 7.078-2.593 14.265-3.956 21.385a20.733 20.733 0 01-1.51 3.763c-1.377-1.178-4.01-2.48-3.91-3.516.436-4.5-.835-9.2 2.521-13.495 1.822-2.331 1.347-6.325 2.463-9.366 1.577-4.307-1.671-5.984-3.963-8.094a89.421 89.421 0 00-8.1-6.43 3.769 3.769 0 00-2.943-.159c7.036 5.443 13.668 10.722 10.793 20.968-.862 3.068-6.615 6.981-11.509 7.355 1.789-2.351 3.251-4.284 4.725-6.207a11.323 11.323 0 001.809-2.339c1.992-5.08 1.509-6.219-3.6-8.527-3.879-1.752-7.81-3.388-11.719-5.075l-.784 1.108 5.443 3.177-.575 2.04c-4.113 1.37-8.141 3.473-12.355 3.962-9.771 1.132-19.635 1.481-29.458 2.15-1.47.1-2.939.216-4.408.323l-.076 1.45 25.535 2.129c-2.254.829-4.16 1.583-6.1 2.234-14.31 4.785-28.648 9.491-42.906 14.43-1.226.426-1.927 2.364-2.873 3.6 1.525.422 3.23 1.5 4.542 1.147A132.454 132.454 0 00500 844.288c3.526-1.363 6.828-2.548 8.8 2.238-9.478 17.7-16.019 36.628-20.961 56.321-3.971 15.811-9.689 31.181-14.635 46.746-7.842 24.688-15.445 49.456-23.618 74.033-5.159 15.506-10.637 30.955-17.028 45.979-3.171 7.464-6.414 15.225-12.558 21.246zm98.617-245.927c5.835-.526 11.727-2.02 17.473-1.563 8.037.639 13.631-3.786 19.6-7.171 5.043 5.06 8.148-1.82 12.5-1.817a61.9 61.9 0 00.226 7.438 7.547 7.547 0 001.944 4.37c1.508 1.338 3.636 1.974 5.5 2.911a29.25 29.25 0 001.812-4.5c1.622-7.181 3.108-14.394 4.643-21.594l1 .005c.831 3.556 1.848 7.081 2.446 10.677.8 4.848 2.625 8.966 6.553 12.144a4.542 4.542 0 011.248 3.574c-2.641 18.964-4.192 38.2-8.575 56.764-3.194 13.525-8.924 26.857-15.766 39.013-8.221 14.606-18.818 27.876-28.4 41.712a14.977 14.977 0 01-2.054 1.7l-2.788-38.044-1.129-.015c-1.51 12.258 1.4 25.029-3.744 36.866-.2-.042-.541-.013-.618-.142-7.8-13.127-15.26-26.489-20.364-40.886-4.749-13.4-9.664-26.886-9.837-41.446-.1-8.409-.439-16.817-.575-25.228a9.15 9.15 0 01.782-3.7c4-9.113 8.157-18.161 12.105-27.3 1.207-2.819 3.324-3.524 6.022-3.768zm-4.787-5.308q23.3-7.871 46.592-15.743c-12.308 14.512-28.204 18.662-46.588 15.743zm113.977 204.459c14.357-.8 28.712-1.658 43.071-2.424 3.871-.207 7.756-.173 11.717-.251-2.392-2.361-4.647-2.913-15.525-3.717l4.022-1.054a12.187 12.187 0 00-2.084-.712c-5.759-.662-5.845-.641-6.547-6.3-.724-5.836-.379-11.976-2.139-17.459-1.533-4.782.744-7.893 1.8-11.8 1.324-4.89 1.681-10.044 2.4-15.093a36.3 36.3 0 00.269-3.773c.365-11.636-4.968-39.872-10.932-51.025a92.633 92.633 0 01-4.423-9.776c-1.662-4.226-2.111-8.56.991-12.353 2.991-3.657 3.024-7.846 2.283-11.995-2.574-14.438-5.232-28.865-8.191-43.23-2.234-10.857-4.886-21.634-7.557-32.4-.721-2.9-2.194-5.617-3.321-8.42l.508-1.3c9.731 1.527 19.754 2.084 29.1 4.888 7.394 2.217 12.754 8.688 16.132 15.7a118.449 118.449 0 018.3 22.158c4.189 16.59 7.54 33.389 11.329 50.081 3.258 14.36 6.844 28.651 9.935 43.047 3.858 17.981 7.446 36.023 10.973 54.074 1.272 6.511 2.161 13.11 2.949 19.7.282 2.366-.524 4.848-.354 7.243.883 12.478 1.669 24.971 2.992 37.406.954 8.986-4.584 17.5-13.434 19.313-22.2 4.554-44.574 7.126-67.288 6.52-13.939-.372-27.892-.614-41.835-.478-28.509.281-57.014 1.138-85.523 1.188-13.788.025-27.576-1.333-41.369-1.893-10.064-.408-20.144-.821-30.208-.692-6.786.087-13.561 1.11-20.718 1.75 3.688-7.155 7.262-14.389 11.189-21.426a6.71 6.71 0 014.4-2.641c12.744-1.979 25.52-3.747 38.291-5.551 9.99-1.411 19.966-2.944 29.982-4.132 16.891-2 33.978-2.845 50.667-5.9 16.909-3.09 33.881-4.9 50.936-6.4 5.724-.493 11.48-.554 17.216-.873zm12.337-7.733c.426-4.411 8.163-13.9 16.115-19.117l2.806 18.746zm2.976-246.672a4.5 4.5 0 01-2.469 2.107c-4.558 1.667-9.149 3.26-13.8 4.618-1.023.3-2.946-.056-3.455-.8-5.83-8.479-1.931-27.128 6.678-32.607a12.717 12.717 0 011.883-.772c-1.383 4.1-3 7.8-3.82 11.658a40.8 40.8 0 00-.807 11c.1 1.625 1.74 4.054 3.138 4.434s4.273-.912 4.908-2.235a49.766 49.766 0 004.313-12.481c.865-4.756-1.012-8.892-6.435-11.339 5.475-.951 9.023.833 10.689 5.15 2.757 7.16 2.034 14.307-.823 21.267z"/></g></g></g><g id="组_72" data-name="组 72"><g id="组_71" data-name="组 71"><g id="组_70" data-name="组 70"><path id="路径_31" data-name="路径 31" class="cls-1" d="M460.981 667.293c3.269.5 9.064 1.624 12.288 2.062a87.651 87.651 0 0010.245 1.173c3.284.056 6.461-1.318 9.619-2.14 2.618-.678 6.85 1.825 9.075-1.662-11.635-2.316-22.383-4.455-33.016-6.569-.179.793-.082 3-.937 3.465a4.371 4.371 0 01-4.216-.717c-.95-1.165-1-3.209-1.088-4.894"/></g></g></g><g id="组_76" data-name="组 76"><g id="组_75" data-name="组 75"><g id="组_74" data-name="组 74"><g id="组_73" data-name="组 73"><path id="路径_32" data-name="路径 32" class="cls-1" d="M512.556 741.273c-1.865-.437-2.451-1.874-2.978-3.356a6.966 6.966 0 01-.2-.822c-.067-.312-.131-.625-.2-.936a4.7 4.7 0 00.857.162 1.228 1.228 0 00.692-.187 31.617 31.617 0 018.662-4.6 3.922 3.922 0 013.835.491c1.706 1.545 3.235.927 4.828.106a8.2 8.2 0 015.573-.634c4.017.752 7.576 2.538 11.21 4.23a23.536 23.536 0 002.694 1.291 9.56 9.56 0 011.675.472 3.045 3.045 0 01-2.466 2.337 3.071 3.071 0 00-1.875 1.612 19.172 19.172 0 01-8.178 5.667 74.829 74.829 0 01-7.48 2.132 16.028 16.028 0 01-7.522-.8c-2.882-1.094-6.82-1.645-8.015-3.324a5.6 5.6 0 01-1.112-3.841zm2.807-.025c-.339 2.211.208 2.586 2.143 3.529a23.545 23.545 0 004.21 1.34 28.033 28.033 0 004.814.742 20.274 20.274 0 008.408-1.227 35.322 35.322 0 007.852-4.461c-2.6-.158-5-.286-7.4-.457-1.169-.082-2.329-.291-3.5-.346a5.586 5.586 0 00-2.507.184 6.168 6.168 0 01-4.983.458 5.711 5.711 0 00-2.176-.6c-2.296.183-4.576.544-6.861.838zm29.257-2.92a13.871 13.871 0 00-2.02-1.385c-2.054-.893-4.153-1.686-6.227-2.531a12.435 12.435 0 00-9.458.063 5.708 5.708 0 01-3.607-.109c-2.287-.8-4.459-1.238-6.582.248-1.411.99-2.748 2.084-4.118 3.129 1.529 2.01 8.769 1.764 9.664-.285 2.684 2.944 6.161 2.36 7.927.254a12.535 12.535 0 001.995.626c1.241.163 2.5.2 3.745.3a41.869 41.869 0 004.45.383 31.293 31.293 0 004.231-.693z"/></g></g></g></g></g></g></g><g id="组_81" data-name="组 81"><g id="组_80" data-name="组 80"><g id="组_79" data-name="组 79"><path id="路径_33" data-name="路径 33" class="cls-2" d="M820.714 798.4a1.676 1.676 0 01-.234-.011 4.293 4.293 0 01-2.438-.844c-.58-.428-1.5-1.188-2.813-2.321a89.47 89.47 0 01-3.565-3.237 2.709 2.709 0 01-.853-2.551 12.294 12.294 0 01.873-2.758 75.287 75.287 0 001.6-3.01 7.372 7.372 0 00.7-2.972c.052-.653.106-2.083.162-4.228s.078-4.356.068-6.585-.024-3.762-.041-4.614c-.339-2.177-2.066-4.116-5.142-5.856a5.992 5.992 0 01-2.309-3.86 22.965 22.965 0 01-.478-4.89c.066-2.583.641-4.13 1.706-4.6a6.146 6.146 0 012.2-.608 1.775 1.775 0 01.452.044 40.673 40.673 0 018.254 1.952l.058.028.062.014c1.525.362 2.89 2.329 4.057 5.844a6.949 6.949 0 01.428 3.258 3.675 3.675 0 01-1.084 2.613 10.367 10.367 0 00-3.527 3.918 40.275 40.275 0 00-1.307 5.868 54.283 54.283 0 00-.779 5.782c-.063.918.024 1.4.3 1.694a.806.806 0 00.6.252c.5-.009.883-.444 1.3-1.094l.032-.05.023-.054c.8-1.96 1.84-4.277 3.081-6.885s2.231-4.826 2.927-6.561c.011-.005.05-.04.061-.047a1.046 1.046 0 00.14.069l.143.066.191.012.478-.01.281-.913-.65-.466c-.724-.569-1.556-1.614-.205-3.923 1.193-1.832 1.988-2.122 2.354-2.13a.776.776 0 01.2.023 13.237 13.237 0 001.58.058c.264-.006.538-.017.821-.035a10.629 10.629 0 003.385-.946c1.725-.677 4.019-1.621 7-2.88l.421-.178-.019-.458q-.189-4.506-.5-10.431c-.21-3.98-.446-7.688-.7-11.023a5.629 5.629 0 00-1.641-3.828c-.517-.495-1.054-1.372.208-3.274a21.721 21.721 0 012.414-2.895 2.186 2.186 0 011.713-.843 4.051 4.051 0 011.316.223c.982.687 2.115 1.441 3.369 2.243s2.2 1.44 2.79 1.875a3.9 3.9 0 011.322 1.512 5.5 5.5 0 01.157 1.908c-.1 1.434-.177 2.717-.22 3.833l-.038 1.03.951-.393c1.511-.625 2.8-1.22 3.842-1.767a6.491 6.491 0 012.3-.549 3.275 3.275 0 011.258.206 41.235 41.235 0 012.955 1.741 3.085 3.085 0 011.526 2.875 23.275 23.275 0 01-.5 3.223c-.094.8-.91 1.253-2.443 1.443a30.863 30.863 0 00-4.194 1.34q-2.586.987-5.117 2.016l-.423.171.1 4.974.851-.279a11.76 11.76 0 002.264-.982 6.447 6.447 0 012.4-.755 1.322 1.322 0 01.142 0 6.415 6.415 0 012.216.762c.481.291.94.573 1.331.822l.3.189.324-.139q1.647-.714 5.092-2.154t6.549-2.672q3.092-1.227 3.672-1.436a2.135 2.135 0 01.852-.19 5.056 5.056 0 012.178.585 25.569 25.569 0 012.874 2.33 26.572 26.572 0 013.172 3.426 2.9 2.9 0 01.442 1.535 2.567 2.567 0 01-.511 1.718 8.767 8.767 0 00-1.441 1.46 9.241 9.241 0 00-1.179 2.565c-.308.776-.827 2.372-1.576 4.847-.728 2.405-1.659 5.147-2.766 8.149l-.2.541.508.271a15.929 15.929 0 011.523.911c5.7 3.9 9.514 6.825 11.338 8.7a6.147 6.147 0 012.357 4.328l.325 4.071a23.861 23.861 0 01-.231 5.294 6.34 6.34 0 01-.821 2.895c-.384.6-1.35.97-2.8 1.083a11.85 11.85 0 01-.626.031 3.419 3.419 0 01-2.356-.564 9.074 9.074 0 01-1.725-2.747 118.616 118.616 0 00-3.035-4.785 42.871 42.871 0 00-3.728-4.854c-.835-.8-2.269-2.151-4.334-4.073l-.653-.607-.392.8a40.662 40.662 0 01-2.93 5.212 26.3 26.3 0 01-2.565 3.155 7.342 7.342 0 01-1.994 1.478 13.121 13.121 0 01-3.147.988c-1.393.289-3.088.567-5.032.826q-2.991.4-4.456.63l-.573.086.033 1.656c-.175 2.222-.674 3.1-1.063 3.428a17.767 17.767 0 01-3.857 2.649 3.861 3.861 0 01-1.616.4 5.678 5.678 0 01-3.726-1.671c-.489-.473-1.62-1.767-3.335-3.826s-3.127-3.881-4.185-5.406l-.281-.4-.468.154a2.8 2.8 0 01-.807.145 2.546 2.546 0 01-1.156-.261 13.332 13.332 0 01-2.569-2.512 9.643 9.643 0 01-1.905-3.443l-.02-.07-.034-.062a1.045 1.045 0 01-.132-.48l-1.313-.112q-.887 4.617-1.333 6.778a74.178 74.178 0 01-2.443 9.49c-.665 1.662-1.47 2.541-2.368 2.562zm20.405-21.2c-1.971 3.053-3.418 5.472-4.3 7.2l-.371.72.781.217a25.128 25.128 0 003.338.739h.041a1.79 1.79 0 001.394-.542 2.251 2.251 0 00.454-1.756l-.163-8.393zm11.794-2.3c.132 3.434.224 6.409.276 9.091l.025 1.252 1.02-.725a58.993 58.993 0 004.781-3.859c2.69-2.322 5.15-6.008 7.3-10.952l.2-.458-.385-.316c-3.777-3.123-6.908-5.514-9.3-7.11-1.308-.852-1.963-1.611-1.8-2.087a2.149 2.149 0 011.386-1.342 15.039 15.039 0 013.152-1.062 5.335 5.335 0 01.881-.089 8.4 8.4 0 012.12.263 41.944 41.944 0 016.267 2.948l.706.384.241-.767c1.584-4.99 1.855-6.255 1.869-6.707a1.215 1.215 0 00-.08-1.071.919.919 0 00-.806-.377 2.181 2.181 0 00-.716.163c-.559.325-1.191.714-2 1.222s-1.43.89-1.877 1.158l-.063.04-.052.048a1.228 1.228 0 01-.867.319 5.142 5.142 0 01-2.212-.651l-.1-.049-.392-.384-.529.33a3.236 3.236 0 01-2.114.774h-.371a11.955 11.955 0 00-4.36 1.023c-.525.208-1.62.717-3.333 1.549l-.674.329.409.626a9.5 9.5 0 01.807 1.54 3.49 3.49 0 01.319 1.027l.071 3.6 1.052-.021a9.071 9.071 0 012.45.682 9.715 9.715 0 012.831 1.781 9.09 9.09 0 012.247 5.468 3.869 3.869 0 01-.31 2.152 10.918 10.918 0 01-1.3 1.826 2.678 2.678 0 01-2.026 1.2 2.431 2.431 0 01-.625-.073c-1.056-.148-1.923-1.082-2.645-2.788l-.173-.412h-.156l-1.2-1.921zm-23.8-9.842a361.183 361.183 0 01-1.3 8.336l1.228.438 1.989-3.465a50.48 50.48 0 012.06-3.33l.53-.775-.908-.239a2.975 2.975 0 01-1.131-.626l-.064-.051-.076-.036a11.447 11.447 0 01-1.312-.717l-.866-.554zm11.972-2.486q-3.786 1.938-5.145 2.65a1.186 1.186 0 00-.709.792l-.082.268.134.245a10.282 10.282 0 011.164 2.815c.415 1.545 1.376 1.75 1.912 1.739a3.381 3.381 0 001.64-.56q.682-.408 1.953-1.224l.311-.2-.1-4.972a4.714 4.714 0 00-.142-1.137l-.211-.79zm-23.45-23.9a3.151 3.151 0 01.158-.445c1.139-2.781 1.258-3.736 1.249-4.214a6.662 6.662 0 00-.593-3.254l-.028-.069-.042-.062a43.538 43.538 0 01-1.859-2.986 3.642 3.642 0 01-.007-1.8 3.886 3.886 0 01.708-1.646 7.722 7.722 0 012.554-1.852 9.868 9.868 0 014.064-1.183 4.92 4.92 0 012.487.5q1.1.62 2.2 1.191a13.038 13.038 0 013.147 2.866 12.026 12.026 0 012.246 3.221 8.866 8.866 0 01-.11 4.33 10.73 10.73 0 01-1.593 3.215 4.063 4.063 0 01-2.957 1.7 3.255 3.255 0 01-1.077-.17 79.753 79.753 0 00-4.138-.73h-.066a17.478 17.478 0 00-5.825 1.222 3.6 3.6 0 01-.513.17z"/></g></g></g><g id="组_84" data-name="组 84"><g id="组_83" data-name="组 83"><g id="组_82" data-name="组 82"><path id="路径_34" data-name="路径 34" class="cls-2" d="M856.173 900.648a4.761 4.761 0 01-1.642-.242 8.517 8.517 0 01-2.589-1.406 29.284 29.284 0 01-3.183-3.454 28.531 28.531 0 00-2.039-2.292 17.486 17.486 0 01-1.475-1.557c-.4-.458-.822-.943-1.324-1.453l-.519-.527-.474.568c-.664.793-1.869 2.06-2.931 3.181-.564.59-1.081 1.136-1.453 1.54a71.142 71.142 0 01-2.876 2.984 9.222 9.222 0 01-1.546.94 6.154 6.154 0 01-1.644.622c-.66.121-1.371.235-2.138.338s-1.436.183-2.008.232l-4.911.27a.843.843 0 01-.85-.448c-.1-.209.186-.66.736-1.153.859-.772 2.054-1.924 3.553-3.426.888-.889 1.949-2.165 2.978-3.4.747-.9 1.494-1.794 2.181-2.554a64.07 64.07 0 004.368-5.35c.448-.608.935-1.238 1.428-1.874a44.63 44.63 0 002.887-4.015c.533-.88 1.22-1.878 1.884-2.843.732-1.061 1.424-2.067 1.81-2.777l.731-1.347-1.486.377c-1.12.283-3.286.888-4.857 1.326-.819.229-1.475.412-1.729.48a2.027 2.027 0 01-.613.11 4.11 4.11 0 01-2.108-.713c-.2-.128-1.674-1.31-2.231-1.755l-.437-.35-.421.368c-2.3 2.005-3.689 3.185-4.12 3.51-2.166 1.637-3.526 2.685-4.152 3.206a4.09 4.09 0 01-2.286.754h-.251a1.809 1.809 0 01-1.712-1.087 21.065 21.065 0 01-.954-3.369 9.757 9.757 0 00-.861-2.712c-.525-1.539.007-2.733 1.7-3.679a250.347 250.347 0 003.3-1.755 18.324 18.324 0 003.134-2.21q2.95-2.4 7.22-5.977c2.813-2.352 5.465-4.607 7.881-6.7s4.006-3.539 4.759-4.322c.9-.937 1.254-1.744 1.079-2.468a2.031 2.031 0 00-1.492-1.359l-1.057-.364.178 1.1a5.835 5.835 0 01.025 1.388.823.823 0 01-.532.74c-.79.384-1.857.842-3.183 1.365a9.367 9.367 0 01-3 .77 3.88 3.88 0 01-.345.022 2.944 2.944 0 01-2.6-1.618c-.272-.636-.733-1.907-1.321-3.685l-.212-.638-.637.214a95.744 95.744 0 00-3.861 1.4 12.61 12.61 0 00-2.972 1.473 4.655 4.655 0 01-2.2.67 3.908 3.908 0 01-2.535-.938 28.28 28.28 0 01-5.567-4.8 1.669 1.669 0 01-.37-1.6 2.162 2.162 0 011.294-1.314 43.055 43.055 0 015.251-1.864c2.431-.737 9-2.718 9-2.718l-.234-.662c-.786-2.214-1.39-3.857-1.8-4.887-.625-1.342-.7-2.314-.25-2.928a2.762 2.762 0 011.8-1.191 11.975 11.975 0 012.237-.252 14.158 14.158 0 011.768.081 30.263 30.263 0 013.273.484c1.889.34 3 .89 3.166 1.555.239.968 1.127 4.621 1.127 4.621l.645-.147a91.228 91.228 0 004.437-1.13c2.115-.606 4.47-1.219 7-1.825l.39-.094.1-.387a23.3 23.3 0 01.855-2.754 6.975 6.975 0 00.439-3.811l-.02-.083-.039-.077a5.994 5.994 0 01-.538-1.472 1.821 1.821 0 01.423-1.406 7.733 7.733 0 012.646-1.757 26.3 26.3 0 012.863-1.112 6.71 6.71 0 011.834-.335 2.892 2.892 0 012.3.9 15.7 15.7 0 012.879 3.544 2.927 2.927 0 01.122 1.719 8.285 8.285 0 01-.693 2.32 4 4 0 01-.337.716l-.728 1.266 1.433-.273c3.42-.649 5.3-1.016 5.929-1.155a6.12 6.12 0 012.073-.4 1.885 1.885 0 011.519.76 21.68 21.68 0 012.683 3.88 12.8 12.8 0 011.362 3.08 4.49 4.49 0 01-.025 1.314 4.878 4.878 0 01-1.094 1.933 3.769 3.769 0 01-3.013 1.5 5.992 5.992 0 01-1.367-.143 8.32 8.32 0 01-1.746-.524 4.635 4.635 0 00-2.1-.36c-1.079.088-4.006.559-8.739 1.4l-.378.067-.133.36q-1.613 4.377-1.97 5.422a5.764 5.764 0 01-2.311 3.1l-.483.326.255.524c1.519 3.108.292 4.337-.763 4.994a24.321 24.321 0 00-3.939 2.917c-.339.295-13.514 11.954-13.514 11.954s14.62-3.188 15.148-3.3a14.9 14.9 0 012.42-.338 4.02 4.02 0 011.987.49c.525.291 1.254.667 2.079 1.088a61.3 61.3 0 016.04 3.392l.491.332.39-.447c2.077-2.369 1.449-3.833.559-4.642a14.983 14.983 0 00-5.063-2.765c-.584-.258-.7-.567-.42-1.213a2.74 2.74 0 011.56-1.6c2.73-.582 5.4-1.077 7.834-1.437.58-.063 1.149-.1 1.684-.113a7.416 7.416 0 014.087.833 17.869 17.869 0 012.855 2.347 18.638 18.638 0 012.324 2.723 5.776 5.776 0 01.529 3.4 6.571 6.571 0 01-1.2 3.361 3.232 3.232 0 01-2.111 1.36 1.272 1.272 0 01-.326-.035c-.983-.233-1.975-.465-2.985-.7a19.03 19.03 0 00-1.667-.038 29.187 29.187 0 00-6.049.807l-.611.145.1.619a4.209 4.209 0 01.059.925 216.89 216.89 0 01-1.129 7.989c-.339 2.142-.85 4.475-1.346 6.73-.2.922-.4 1.828-.583 2.7a35.844 35.844 0 01-1.743 5.368c-.386 1.005-.754 1.955-1.006 2.794-1.1 3.288-2.875 5.131-5.42 5.615a7.158 7.158 0 01-1.504.203zm-.076-30.89a3.072 3.072 0 00-.589.068l-6.519 1.261 1.425.905a14.675 14.675 0 011.819 1.308c.2.175.442.355.7.549.547.405 1.295.959 1.35 1.384.008.048.025.174-.148.4a128.559 128.559 0 01-4.394 5.7c-.655.8-1.266 1.6-1.874 2.4-.96 1.257-1.866 2.443-2.929 3.64l-.556.63.736.4c.578.316 1.419.866 2.31 1.447 2.416 1.577 3.546 2.265 4.207 2.252h.094l.161-.038a3.07 3.07 0 001.9-2.012c.392-1.136.907-2.8 1.538-4.974s1.28-4.446 1.938-6.8 1.152-4.308 1.477-5.835a2.109 2.109 0 00-1.038-2.268 3.185 3.185 0 00-1.605-.417zm-6.671-32.833a9.11 9.11 0 01-1.221.286c-1.488.353-3.049.729-4.736 1.138l-.615.15.114.622a5.489 5.489 0 01.1.833l.013.67.671-.013a64.74 64.74 0 015.126.085l.523.03.157-.5c.238-.766.477-1.592.714-2.487l.309-1.169z"/></g></g></g><g id="组_87" data-name="组 87"><g id="组_86" data-name="组 86"><g id="组_85" data-name="组 85"><path id="路径_35" data-name="路径 35" class="cls-1" d="M883.258 925.341l-61.7 1.211a22.055 22.055 0 01-22.46-21.6l-4.195-213.673 69.858-1.371a35.943 35.943 0 0136.6 35.192l3.49 177.776a22.058 22.058 0 01-21.593 22.465zm-83.321-229.22l4.1 208.739a17.114 17.114 0 0017.429 16.759l61.7-1.211a17.114 17.114 0 0016.757-17.43L896.429 725.2a31 31 0 00-31.569-30.355z"/></g></g></g><g id="组_97" data-name="组 97"><g id="组_90" data-name="组 90"><g id="组_89" data-name="组 89"><g id="组_88" data-name="组 88"><path id="路径_36" data-name="路径 36" class="cls-2" d="M322.7 779.51c-.457-1.131-1.108-2.6-1.928-4.355l-.078-.162-.317-.679q-1.528-3.228-1.921-3.977a7.227 7.227 0 00-5.924-3.456v.029c-.238.006-.4.312-.457 1q.256 3.4.445 5.706t.24 5.05q.042 2.079-.031 3.261a12.022 12.022 0 01-.335 2.227 3.868 3.868 0 01-1.277 2.34 6.2 6.2 0 01-2.719 1.047 36.6 36.6 0 01-6.362.832q-2.972.108-6.849-.007-4.926-.562-4.549-5.58a52.5 52.5 0 01.973-5.688q.822-3.889 2.059-8.215t2.41-7.273a6.636 6.636 0 011.931-2.684 12.987 12.987 0 012.426-1.559 3.744 3.744 0 001.511-2.392 3.9 3.9 0 00-.287-2.64q-.881-1.492-2.532-3.776a24.307 24.307 0 00-1.293-1.644c-.075-.1-.122-.182-.224-.3s-.2-.167-.289-.265a8.007 8.007 0 00-.983-.893c-.074-.053-.151-.09-.228-.141a5.95 5.95 0 00-.835-.509c-.043-.02-.078-.005-.119-.019a9.525 9.525 0 00-5.063-.726.258.258 0 00-.03 0c-.031 0-.076.014-.11.016-.058.008-.1.013-.151.022a4.1 4.1 0 00-.613.11l-.167.039.018.01c-.214.061-.424.119-.668.214q-1.875.887-6.282 2.58 2.145-6.277 2.594-7.516a7.572 7.572 0 00-.967-5.933q-2.25-3.732-5.926-3.474-2.365-.045-6.141.073t-5.472.345q-3.012.72-1.737 2.962a18.08 18.08 0 003.012 4.287q1.057.925 1.54 1.434t.038 1.936q-1.143 4.371-3.914 12.362-6.753 2.491-11.957 4.58t-6.607 2.774a3.1 3.1 0 00-1.377 2.012 2.761 2.761 0 00.045 2.267 39.757 39.757 0 005.57 4.614 6.987 6.987 0 002.719 1.317 5.761 5.761 0 003.436-.586 20.464 20.464 0 012.25-.9q-1.989 4.575-4.169 9.012t-3.457 6.776q-1.279 2.34-2.982 2.089a16.854 16.854 0 01-2.139-.619c-.6-.211-1.121-.388-1.646-.568s-5.634-2.809-2.013 4.232a49.307 49.307 0 006.671 7.807 5.658 5.658 0 005.319 1.405 7.485 7.485 0 003.5-2.1 27.3 27.3 0 004-5.7 106.313 106.313 0 005.873-11.218q2.943-6.434 5.938-12.825 1.086-2.38 2.349-5.43 2.436-.99 4.127-1.593t1.874-.7q1.887-.223 1.06.925a76.05 76.05 0 00-4.249 12.273 54 54 0 00-1.533 10.9q-.419 7.473 2.392 11.2a15.115 15.115 0 005.609 4.094 21.444 21.444 0 006.5 1.337 99.139 99.139 0 0014.316 0 82.667 82.667 0 0012.483-1.757 8.994 8.994 0 005.19-2.748 7.522 7.522 0 001.634-5.795 24.531 24.531 0 00-1.188-5.22l-1.957-5.874z"/></g></g></g><g id="组_93" data-name="组 93"><g id="组_92" data-name="组 92"><g id="组_91" data-name="组 91"><path id="路径_37" data-name="路径 37" class="cls-2" d="M324.35 854.039a8.22 8.22 0 00-1.747-2.4 10.408 10.408 0 00-1.9-.834q-1.527-.569-2.773-.957a2.928 2.928 0 00-1.933-.1 17.035 17.035 0 00-1.681.86q-1.819.954-4.681 2.48t-5.363 2.814q-2.5 1.29-3.229 1.671-1.64.582-1.022-.623.541-.562 3.294-3t4.969-4.184q2.215-1.742 5.519-4.242c1.442-1.089 2.492-1.9 3.223-2.5a2.559 2.559 0 00.46-.375l.007-.011c.162-.135.323-.271.424-.367a3.187 3.187 0 00.142-.337 3.883 3.883 0 00.142-4.227c-.035-.1-.056-.2-.1-.3a19.305 19.305 0 00-1.927-2.259 22.9 22.9 0 00-3.037-2.7 3.532 3.532 0 00-1.72-.975 6.97 6.97 0 00-1.878.128 9.208 9.208 0 00-3.1 1.254q-1 .57-3.409 1.859t-4.316 2.336l-2.184 1.05c-.378-.6-.962-1.453-1.748-2.538a10.056 10.056 0 00-2.2-2.345 4.4 4.4 0 00-3.5-.3c.111-.613.191-1.165.244-1.657a5.743 5.743 0 00-.3-3.438 4.139 4.139 0 00-1.548-1.669 43.371 43.371 0 00-5.208-3.3 3.7 3.7 0 00-2.99-.263 7.905 7.905 0 00-2.307 1.745q-2.434 2.343-1.2 4.431a8.977 8.977 0 011.217 5.855q-.063 1.564-.022 3.583-5.279 2.49-7.008 3.167a.372.372 0 01-.273.1 2.917 2.917 0 00.8-1.116 4.8 4.8 0 00.733-2.312 3.917 3.917 0 00-1.111-2.825 29.028 29.028 0 00-3.362-2.872 23.88 23.88 0 00-4-2.493 2.626 2.626 0 00-2.116-.143 3.021 3.021 0 00-1.358 1.038q-.711 1.207-1.688 2.879-.537.655-2.873 3.362t-4.712 5.6q-2.376 2.892-3.181 3.92-1.785 2.79-1.474 4.529a1.9 1.9 0 00.514 1.576l-.013.007.063.039a1.174 1.174 0 00.3.167c.87.449 3.445 1.5 8.309 1.284a.154.154 0 00.03 0 .877.877 0 00.259-.087 12.046 12.046 0 002.038-1.463q.9-.661 1.988-1.6c-.054.429-.135.921-.247 1.473a5.839 5.839 0 01-.343 1.2q-.357.557-1.654 2.372t-2.732 3.5q-.985 1.214-3.633 4.433t-5.2 6.211q-2.559 2.989-3.191 3.552a5.326 5.326 0 00-.974 1.811 5.889 5.889 0 00-.342 1.338s.24 2.914 6.173 3.349a6.106 6.106 0 002.66-.453c.047-.017.078-.02.132-.043.1-.06.14-.1.225-.152a2.907 2.907 0 00.278-.17c.013-.009.006-.019.018-.03a2 2 0 00.654-.587q1-.571 1.726-.954a29.232 29.232 0 002.346-2.066q.022 1.1-.03 5.418t-.148 8.912q-.093 4.6-.055 6.522a4.475 4.475 0 001.353 3.372q1.212.984 2.61 1.969 2.428 2.157 3.967.933a11.137 11.137 0 003.071-2.632 2.872 2.872 0 00.973-1.948 19.716 19.716 0 00-.052-2.662q-.027-1.377-.047-7.024t-.044-11.525q-.021-5.877-.064-7.99a6.392 6.392 0 00-1.548-4.011 15.593 15.593 0 002.158-2.337 19.952 19.952 0 002.468 1.741 19.384 19.384 0 001.809.884 3.42 3.42 0 002.566-.281q.361-.191 3.367-1.535l.045 2.294q-2.461.876-4.421 1.649l-2.688 1.062q-2.543 1.522-1.505 2.877a18.553 18.553 0 001.647 2.035 24.033 24.033 0 002.108 2.117 2.315 2.315 0 002.726.863q1.412-.574 2.23-.961l.031 1.561q-2.346 2.067-5.786 4.613-2.814 1.8-1.856 3.71a23.044 23.044 0 003.4 4.893 3.954 3.954 0 002.411 1.192 4.116 4.116 0 002.106-.27 22.325 22.325 0 013.743-2.186q.909-.384 3.781-1.544t5.833-2.272q2.961-1.115 4.152-1.412 2.916-1.07 2.663-4.646-.027-1.377-.213-3.853t-.32-4.585a5.524 5.524 0 003.11-.612.921.921 0 011.2.527 2.941 2.941 0 01.255 1.235q-.04.507 0 4.821t.086 9q.043 4.68-.015 6.245-.434 1.479-1.542 1.04-.37-.176-2.452-.962t-4.208-1.525q-2.13-.738-2.591-.913a.654.654 0 00-.407.075l-.015-.016s-.814.055.059 3.017l.425 1.661h.015a2.349 2.349 0 00.306.678q.373.453 2.855 2.791t5.425 4.944a43.522 43.522 0 004.942 3.9 4.6 4.6 0 003.6.895 4.266 4.266 0 002.582-1.889 29.909 29.909 0 002.751-4.83 9.308 9.308 0 001.112-4.246q-.117-1.189-.24-2.842t-.215-6.333q-.089-4.5-.142-9.549t-.087-6.7a6.935 6.935 0 00-.718-3.843 4.168 4.168 0 00-1.232-1.905q-.838-.717 1.258-1.493a29.572 29.572 0 019.867-2.859 2.9 2.9 0 001.851-1.644 3.652 3.652 0 00.468-1.893 18.134 18.134 0 00-1.123-3.424zm-48.516 1.182q-.545.286-1.27.759a3.735 3.735 0 01-1.228.576.949.949 0 01-.831-.167c-.219-.18-.145-.395.218-.648.423-.192.94-.415 1.548-.673l1.366-.577c.736.048.8.291.197.73zm1.123-3.6q-4.1 1.825-5.823 2.686a4.805 4.805 0 00-.665-1.088 23.074 23.074 0 00-4.134-4.7 3 3 0 00-2.873-1.412l.718-.749q1.809-1.5 3.615-3.01a2.148 2.148 0 00.052 2.662 49.426 49.426 0 004.475 3.4 4.62 4.62 0 004.692.276 17.574 17.574 0 01-.057 1.931zm14.973 23.489q-.546.284-1.681.861t-2.23 1.053l-.053-2.664a32.072 32.072 0 013.071-2.632q2.078-1.691 1.49-3.7c.618.416 1.425.889 2.414 1.421a13.328 13.328 0 01-3.011 5.661zm4.406-18.868q-2.162 2.2-2.882 2.858a9.249 9.249 0 00-2.061 2.7 3.844 3.844 0 00-.156 1.473 15.286 15.286 0 00.229 2.291 8.9 8.9 0 00-1.7-2.628 3.108 3.108 0 00-1.76-.793q.057-1.745.028-3.308 2.91-1.343 4.962-2.164c1.366-.544 2.142-.853 2.324-.917a3.29 3.29 0 001.37-5.078q-1.98-2.531-3.2-3.794a2.588 2.588 0 00-1.529-.659 5.828 5.828 0 00-1.608-.014q-.364.1-1.912.772a13.919 13.919 0 01.06-1.563q3.282-1.256 5.2-1.938a4.247 4.247 0 00.769 1.729q.652.54 2.19 1.656t2.19 1.657a2.483 2.483 0 001.472.107 12.713 12.713 0 001.556-.35q1.369-.395 1.426.2a1.043 1.043 0 01-.3.926q-.363.33-2.431 2.482t-4.237 4.355z"/></g></g></g><g id="组_96" data-name="组 96"><g id="组_95" data-name="组 95"><g id="组_94" data-name="组 94"><path id="路径_38" data-name="路径 38" class="cls-1" d="M233.2 920.984l-3.49-177.776a35.946 35.946 0 0135.193-36.6l69.856-1.371 4.194 213.673a22.056 22.056 0 01-21.6 22.46l-61.7 1.211a22.058 22.058 0 01-22.453-21.597zM265 711.539a31 31 0 00-30.356 31.572l3.49 177.776a17.117 17.117 0 0017.429 16.76l61.7-1.211a17.116 17.116 0 0016.758-17.431l-4.1-208.74z"/></g></g></g></g></g></svg>