<svg class="icon" viewBox="0 0 1024 1024" xmlns="http://www.w3.org/2000/svg" width="48" height="48"><defs><style/></defs><path d="M436.48 938.667A350.933 350.933 0 01188.16 339.2a351.147 351.147 0 11248.32 599.467zM233.387 384a287.147 287.147 0 10405.333 0 287.573 287.573 0 00-405.333 0z"/><path d="M680.96 375.04a32.213 32.213 0 01-22.613-9.387 31.787 31.787 0 010-45.226L884.053 94.72a32 32 0 0145.227 45.227L704 365.653a32.213 32.213 0 01-23.04 9.387z"/><path d="M906.667 149.333h-239.36a32 32 0 010-64h239.36a32 32 0 010 64z"/><path d="M906.667 149.333h-239.36a32 32 0 010-64h239.36a32 32 0 010 64z"/><path d="M906.667 388.693a32 32 0 01-32-32v-239.36a32 32 0 0164 0v239.36a32 32 0 01-32 32z"/></svg>