<svg class="icon" viewBox="0 0 1160 1024" xmlns="http://www.w3.org/2000/svg" width="226.563" height="200"><defs><style/></defs><path d="M200.027 428.75H427.33V201.447A200.31 200.31 0 00228.44 2.557 227.303 227.303 0 001.137 229.86a200.31 200.31 0 00198.89 198.89zm26.14-369.367A142.064 142.064 0 01368.23 201.447v170.478H197.754A142.064 142.064 0 0155.689 229.86 170.477 170.477 0 01226.166 59.383zM1.42 677.363a227.303 227.303 0 00227.303 227.303 200.31 200.31 0 00198.89-198.89V478.473H200.31A200.31 200.31 0 001.42 677.363zm369.367 26.14a142.064 142.064 0 01-142.064 142.064A170.477 170.477 0 0158.246 675.09a142.064 142.064 0 01142.065-142.064h170.477zm331.578-227.587H475.063v227.303a200.31 200.31 0 00198.89 198.89 227.303 227.303 0 00227.303-227.303 200.31 200.31 0 00-198.89-198.89zm-26.14 369.367a142.064 142.064 0 01-142.064-142.064V532.74h170.477a142.064 142.064 0 01142.065 142.065 170.477 170.477 0 01-170.478 170.477zm224.746-617.98A227.303 227.303 0 00673.67 0a200.31 200.31 0 00-198.89 198.89v227.303h227.303a200.31 200.31 0 00198.89-198.89zm-369.367-26.14A142.064 142.064 0 01673.669 59.1a170.477 170.477 0 01170.478 170.477A142.064 142.064 0 01702.082 371.64H531.605z"/></svg>