<svg class="icon" viewBox="0 0 1024 1024" xmlns="http://www.w3.org/2000/svg" width="37" height="37"><defs><style/></defs><path d="M284.444 625.778a28.444 28.444 0 0128.445 28.444V768a28.444 28.444 0 01-28.445 28.444h-56.888v85.334a28.444 28.444 0 01-56.434 5.12l-.455-5.12v-85.334h-56.89A28.444 28.444 0 0185.334 768V654.222a28.444 28.444 0 0128.445-28.444zM512 455.11a28.444 28.444 0 0127.99 23.325l.454 5.12v398.222a28.444 28.444 0 01-56.433 5.12l-.455-5.12V483.556A28.444 28.444 0 01512 455.11zm227.556 341.333A28.444 28.444 0 01711.11 768V654.222a28.444 28.444 0 0128.445-28.444h170.666a28.444 28.444 0 0128.445 28.444V768a28.444 28.444 0 01-28.445 28.444h-56.889v85.334a28.444 28.444 0 01-56.433 5.12l-.456-5.12v-85.334zM256 682.667H142.222v56.889H256v-56.89zm625.778 0H768v56.889h113.778v-56.89zM199.11 113.777a28.444 28.444 0 0127.99 23.325l.455 5.12V568.89a28.444 28.444 0 01-56.434 5.12l-.455-5.12V142.222a28.444 28.444 0 0128.444-28.444zm625.778 0a28.444 28.444 0 0127.99 23.325l.454 5.12V568.89a28.444 28.444 0 01-56.433 5.12l-.456-5.12V142.222a28.444 28.444 0 0128.445-28.444zm-312.889 0a28.444 28.444 0 0127.99 23.325l.454 5.12V256h56.89a28.444 28.444 0 0127.989 23.324l.455 5.12v113.778a28.444 28.444 0 01-28.445 28.445H426.667a28.444 28.444 0 01-28.445-28.445V284.444A28.444 28.444 0 01426.667 256h56.889V142.222A28.444 28.444 0 01512 113.778zm56.889 199.112H455.11v56.889H568.89v-56.89z"/></svg>