<svg class="icon" viewBox="0 0 1024 1024" xmlns="http://www.w3.org/2000/svg" width="200" height="200"><defs><style/></defs><path d="M512 938.667H181.333a96.213 96.213 0 01-96-96V181.333a96.213 96.213 0 0196-96h533.334a96.213 96.213 0 0196 96V512a32 32 0 01-64 0V181.333a32 32 0 00-32-32H181.333a32 32 0 00-32 32v661.334a32 32 0 0032 32H512a32 32 0 010 64z"/><path d="M458.667 320h-192a32 32 0 010-64h192a32 32 0 010 64zM544 469.333H266.667a32 32 0 010-64H544a32 32 0 010 64zm85.973 469.334a32 32 0 01-32.64-33.494L601.6 816a31.147 31.147 0 019.387-21.333l186.88-187.094a32.213 32.213 0 0145.226 0l85.334 85.334a31.787 31.787 0 010 45.226l-186.88 187.094a33.067 33.067 0 01-21.334 9.386l-88.746 4.054zm89.174-36.267zM665.6 832l-2.133 42.667 42.666-1.92 155.52-155.734-39.68-39.68z"/></svg>