<svg class="icon" viewBox="0 0 1209 1024" xmlns="http://www.w3.org/2000/svg" width="236.133" height="200"><defs><style/></defs><path d="M796.454 585.387V456.533a28.444 28.444 0 00-28.444-28.444H483.565v-117.76a156.444 156.444 0 10-56.889 0v117.475H142.232a28.444 28.444 0 00-28.444 28.445v128.853a142.222 142.222 0 1056.888 0V484.693h568.89v100.694a142.222 142.222 0 1056.888 0zM355.565 156.444A99.556 99.556 0 11455.121 256a99.556 99.556 0 01-99.556-99.556zm-128 568.89A85.333 85.333 0 11142.232 640a85.333 85.333 0 0185.333 84.764zm540.445 85.333a85.333 85.333 0 1185.333-85.334 85.333 85.333 0 01-85.333 84.765z"/><path d="M455.12 582.542a142.222 142.222 0 10142.223 142.222 142.222 142.222 0 00-142.222-142.222zm0 227.556a85.333 85.333 0 1185.334-85.334 85.333 85.333 0 01-85.333 85.334z"/></svg>