<svg class="icon" viewBox="0 0 1189 1024" xmlns="http://www.w3.org/2000/svg" width="232.227" height="200"><defs><style/></defs><path d="M312.879 824.895H58.309A398.21 398.21 0 01456.52 455.13a227.548 227.548 0 10-126.574-38.683A455.096 455.096 0 000 853.339a28.444 28.444 0 0028.444 28.443h284.435a28.444 28.444 0 000-56.887zm-28.444-597.313a170.661 170.661 0 11170.661 170.66 170.661 170.661 0 01-170.661-170.66z"/><path d="M869.233 406.492a140.226 140.226 0 00-215.032 176.634l-56.887 56.887-50.345-49.208a28.444 28.444 0 10-39.537 40.96l49.776 48.353-54.327 54.327-92.441-92.441a28.444 28.444 0 00-40.674 39.82l92.44 92.442-58.877 58.878a28.444 28.444 0 0040.105 40.39l79.073-79.073L693.168 623.8a140.226 140.226 0 00176.065-216.455zm-40.39 158.145a85.33 85.33 0 01-117.755 0 83.34 83.34 0 0158.878-142.217 83.34 83.34 0 0158.878 142.217z"/></svg>