<svg class="icon" viewBox="0 0 1189 1024" xmlns="http://www.w3.org/2000/svg" width="232.227" height="200"><defs><style/></defs><path d="M697.458 277.618A149.333 149.333 0 10549.262 426.95a149.618 149.618 0 00148.196-149.333zm-241.778 0a92.444 92.444 0 1193.582 92.444 92.729 92.729 0 01-93.582-92.444zM321.707 618.382A135.111 135.111 0 00455.68 753.778h184.889a135.111 135.111 0 000-270.222H455.68a135.111 135.111 0 00-133.973 134.826zm135.11-78.222h184.89a78.222 78.222 0 010 156.444h-184.89a78.222 78.222 0 010-156.444z"/><path d="M836.836 0h-714.24a34.418 34.418 0 00-33.85 34.418v181.76h56.89V56.888H814.08v768H145.636V665.6h-56.89v181.76a34.418 34.418 0 0033.85 34.418h714.24a34.418 34.418 0 0034.133-34.418V34.418A34.418 34.418 0 00836.836 0z"/><path d="M28.444 329.956h170.667a28.444 28.444 0 000-56.89H28.444a28.444 28.444 0 100 56.89zm199.112 250.31a28.444 28.444 0 00-28.445-28.444H28.444a28.444 28.444 0 000 56.89h170.667a28.444 28.444 0 0028.445-28.445zM89.03 386.845h56.889V494.65H89.031z"/></svg>