<svg class="icon" viewBox="0 0 1024 1024" xmlns="http://www.w3.org/2000/svg" width="48" height="48"><defs><style/></defs><path d="M800 778.667h-88.747v-64H800a32 32 0 0032-32V384a32 32 0 00-32-32H224a32 32 0 00-32 32v298.667a32 32 0 0032 32h106.667v64H224a96.213 96.213 0 01-96-96V384a96.213 96.213 0 0196-96h576a96.213 96.213 0 0196 96v298.667a96.213 96.213 0 01-96 96z"/><path d="M661.333 896H362.667a96.213 96.213 0 01-96-96V693.333a96.213 96.213 0 0196-96h298.666a96.213 96.213 0 0196 96V800a96.213 96.213 0 01-96 96zM362.667 661.333a32 32 0 00-32 32V800a32 32 0 0032 32h298.666a32 32 0 0032-32V693.333a32 32 0 00-32-32zM800 343.467H224v-140.8A74.667 74.667 0 01298.667 128h426.666A74.667 74.667 0 01800 202.667zm-512-64h448v-76.8A10.88 10.88 0 00725.333 192H298.667A10.88 10.88 0 00288 202.667zm352 211.2a64 64 0 10128 0 64 64 0 10-128 0z"/></svg>