<svg class="icon" viewBox="0 0 1024 1024" xmlns="http://www.w3.org/2000/svg" width="48" height="48"><defs><style/></defs><path d="M814.933 268.587a32.213 32.213 0 01-39.253-5.76A362.667 362.667 0 00154.88 576l64-37.12a32 32 0 1132 55.253l-101.547 58.24a31.787 31.787 0 01-46.72-18.56A426.667 426.667 0 01822.187 218.88a32 32 0 01-1.28 45.227 39.68 39.68 0 01-5.974 4.48zm-89.6 612.906a424.96 424.96 0 01-523.52-76.373 32 32 0 0146.507-43.947A362.667 362.667 0 00869.12 448l-64 37.12a32 32 0 01-32-55.253l101.547-58.454a32 32 0 0146.72 18.347 424.96 424.96 0 01-196.054 491.733z"/></svg>