<svg class="icon" viewBox="0 0 1024 1024" xmlns="http://www.w3.org/2000/svg" width="37" height="37"><defs><style/></defs><path d="M331.904 1024V716.032h31.488c29.056 0 52.48-23.424 52.48-52.48V445.056c0-29.056-23.424-52.48-52.48-52.48H196.224c-29.056 0-52.48 23.424-52.48 52.48v218.496c0 29.056 23.424 52.48 52.48 52.48h31.488V1024h-67.968V777.728C110.208 761.6 76.672 715.52 76.416 663.552V445.056c0-66.048 53.632-119.68 119.68-119.68h167.296c66.048 0 120.448 53.632 120.448 119.68v218.496c-.256 52.096-33.792 98.048-83.328 114.304V1024h-68.608zm548.864-88.32c-23.168 0-44.544-12.416-56.192-32.384a65.25 65.25 0 010-64.896c11.52-20.096 33.024-32.384 56.192-32.384 35.84 0 64.768 29.056 64.768 64.768 0 35.968-29.056 64.896-64.768 64.896zm-253.824-30.848V899.2a30.004 30.004 0 01-12.416-15.36c-1.92-4.48-3.072-9.344-3.584-14.208V547.456h-48.768c-8.96-.384-17.408-4.48-23.424-11.136-6.016-6.528-9.216-15.232-8.576-24.064.512-17.536 14.592-31.488 32-32h48.768V157.44c0-6.784 1.792-13.568 6.144-19.072 6.784-9.856 17.28-16 28.416-16h86.4c9.856 0 17.792 4.352 24.064 10.496 6.144 6.144 9.216 15.488 9.216 24.064-.512 17.792-14.848 32.128-32.64 32.64h-53.76v290.176h53.76c18.432 0 33.92 15.36 33.92 33.92 0 18.432-15.36 33.92-33.92 33.92h-53.76V837.12h53.12c18.432 0 33.92 15.488 33.92 33.92 0 18.56-15.36 33.92-33.92 33.92l-104.96-.128zm253.824-326.4c-35.84 0-64.896-29.056-64.768-64.896 0-35.84 29.056-64.896 64.896-64.768 35.84 0 64.896 29.056 64.896 64.896-.256 35.712-29.312 64.768-65.024 64.768zM279.424 277.76c-76.672-.128-138.752-62.208-138.88-138.88C140.672 62.208 202.88.128 279.424 0c76.672.128 138.752 62.208 138.88 138.88-.512 77.184-62.208 138.88-138.88 138.88zm0-209.152c-38.912 0-71.04 32.128-71.04 70.912 0 38.912 32.128 71.04 71.04 71.04s71.04-32.128 71.04-71.04-32.128-70.912-71.04-70.912zm601.344 152.32c-23.68.768-45.824-11.392-57.856-31.744-12.032-20.352-12.032-45.696 0-66.048 12.032-20.352 34.176-32.512 57.856-31.744 23.68-.768 45.824 11.392 57.856 31.744 12.032 20.352 12.032 45.696 0 66.048-12.16 20.352-34.304 32.512-57.856 31.744zm0 0"/></svg>