<svg class="icon" viewBox="0 0 1024 1024" xmlns="http://www.w3.org/2000/svg" width="48" height="48"><defs><style/></defs><path d="M842.667 938.667h-168.32a32 32 0 010-64h168.32a32 32 0 0032-32v-168.32a32 32 0 0164 0v168.32a96.213 96.213 0 01-96 96zm64-557.014a32 32 0 01-32-32v-168.32a32 32 0 00-32-32h-168.32a32 32 0 010-64h168.32a96.213 96.213 0 0196 96v168.32a32 32 0 01-32 32zm-789.334 0a32 32 0 01-32-32v-168.32a96.213 96.213 0 0196-96h168.32a32 32 0 010 64h-168.32a32 32 0 00-32 32v168.32a32 32 0 01-32 32zm232.32 557.014h-168.32a96.213 96.213 0 01-96-96v-168.32a32 32 0 0164 0v168.32a32 32 0 0032 32h168.32a32 32 0 010 64zM757.333 544H266.667a32 32 0 010-64h490.666a32 32 0 010 64z"/></svg>