<svg class="icon" viewBox="0 0 1024 1024" xmlns="http://www.w3.org/2000/svg" width="48" height="48"><defs><style/></defs><path d="M150.4 85.333h266.667q64 0 64 64V416q0 64-64 64H150.4q-64 0-64-64V149.333q0-64 64-64zm74.667 656a58.667 58.667 0 10117.333 0 58.667 58.667 0 10-117.333 0z"/><path d="M353.067 544H214.4a128 128 0 00-128 128v138.667a128 128 0 00128 128h138.667a128 128 0 00128-128V672a128 128 0 00-128-128zm-69.334 320A122.667 122.667 0 11406.4 741.333 122.88 122.88 0 01283.733 864zM740.267 85.333q197.333 0 197.333 197.334Q937.6 480 740.267 480q-197.334 0-197.334-197.333 0-197.334 197.334-197.334zM606.933 544H873.6q64 0 64 64v266.667q0 64-64 64H606.933q-64 0-64-64V608q0-64 64-64z"/></svg>