<svg class="icon" viewBox="0 0 1024 1024" xmlns="http://www.w3.org/2000/svg" width="48" height="48"><defs><style/></defs><path d="M512 320a192 192 0 10192 192 192 192 0 00-192-192zm0 250.667A58.667 58.667 0 11570.667 512 58.667 58.667 0 01512 570.667z"/><path d="M922.453 448L773.12 189.227a128 128 0 00-111.573-64h-298.88a128 128 0 00-111.574 64L101.547 448a128 128 0 000 128L250.88 834.773a128 128 0 00111.573 64h298.88a128 128 0 00111.574-64L922.24 576a128 128 0 00.213-128zM512 768a256 256 0 11256-256 256 256 0 01-256 256z"/></svg>