<svg class="icon" viewBox="0 0 1024 1024" xmlns="http://www.w3.org/2000/svg" width="200" height="200"><defs><style/></defs><path d="M864 938.667a35.627 35.627 0 01-9.387-1.28l-333.226-101.12a31.36 31.36 0 00-18.774 0l-333.226 101.12A32 32 0 01128 906.667V181.333a96.213 96.213 0 0196-96h576a96.213 96.213 0 0196 96v725.334a32.64 32.64 0 01-13.013 25.813A32 32 0 01864 938.667zM224 149.333a32 32 0 00-32 32V864l292.053-88.533a96 96 0 0155.894 0L832 863.573v-682.24a32 32 0 00-32-32z"/><path d="M504.533 418.987a32.64 32.64 0 01-22.826-9.387l-85.334-85.333a32 32 0 1145.44-45.227l85.334 85.333a32.213 32.213 0 01-22.614 54.827z"/><path d="M519.467 418.987a32.213 32.213 0 01-22.614-54.827l85.334-85.333a32 32 0 1145.44 45.226l-85.334 85.334a32.64 32.64 0 01-22.826 9.6z"/><path d="M642.133 456.533H381.867a32 32 0 010-64h260.266a32 32 0 010 64zm21.334 121.387H360.533a32 32 0 110-64h302.934a32 32 0 010 64z"/><path d="M512 699.307a32 32 0 01-32-32V405.333a32 32 0 0164 0v261.974a32 32 0 01-32 32z"/></svg>