<svg class="icon" viewBox="0 0 1154 1024" xmlns="http://www.w3.org/2000/svg" width="225.391" height="200"><defs><style/></defs><path d="M312.531 823.98H58.244a397.767 397.767 0 01397.768-369.355 227.295 227.295 0 10-126.434-38.64A454.591 454.591 0 000 852.392a28.412 28.412 0 0028.412 28.412h284.12a28.412 28.412 0 100-56.824zM284.12 227.33A170.472 170.472 0 11454.591 397.8a170.472 170.472 0 01-170.472-170.47zm357.99 376.742a82.395 82.395 0 10104.557 51.425 82.395 82.395 0 00-104.556-51.425zm34.947 102.567a25.57 25.57 0 1115.911-32.674 25.57 25.57 0 01-15.91 32.674z"/><path d="M838.72 644.417a54.55 54.55 0 01-11.364-34.663 59.95 59.95 0 0133.81-54.835 222.181 222.181 0 00-37.788-43.47 237.808 237.808 0 00-39.493-28.412 232.694 232.694 0 00-53.698-22.162 59.95 59.95 0 01-16.763 36.936 58.244 58.244 0 01-20.457 13.922 62.79 62.79 0 01-21.877 4.546 60.802 60.802 0 01-60.802-53.983c-3.693 0-7.67 1.989-11.364 3.41a216.499 216.499 0 00-42.05 19.035 227.295 227.295 0 00-39.493 29.833 223.602 223.602 0 00-36.935 44.89 58.244 58.244 0 0137.22 50.006 58.529 58.529 0 01-13.638 44.038 60.517 60.517 0 01-58.529 20.457 220.76 220.76 0 005.398 56.824 201.725 201.725 0 006.251 22.445 221.897 221.897 0 009.944 23.866 225.59 225.59 0 0031.253 48.585 60.233 60.233 0 0161.654-17.9 66.2 66.2 0 0118.184 8.524 54.267 54.267 0 0113.354 13.353 60.233 60.233 0 014.83 64.211 238.944 238.944 0 0056.823 12.217 206.839 206.839 0 0047.732 0 215.647 215.647 0 0045.175-10.228l10.513-4.262a60.517 60.517 0 015.682-65.347 64.495 64.495 0 0111.65-11.649 50.857 50.857 0 0114.49-7.671 59.38 59.38 0 0164.21 13.353 222.181 222.181 0 0028.412-49.436 225.59 225.59 0 0018.184-102.852 60.233 60.233 0 01-60.518-23.581zm-9.66 103.135a117.625 117.625 0 00-90.35 21.593 116.773 116.773 0 00-46.027 80.974 165.357 165.357 0 01-33.526 0 115.637 115.637 0 00-142.06-98.021c-2.273-5.398-4.546-11.08-6.535-16.763a149.447 149.447 0 01-4.261-15.059 116.205 116.205 0 0054.267-160.527 64.211 64.211 0 00-3.694-5.682 165.642 165.642 0 0126.707-19.605 118.194 118.194 0 0087.793 38.072 116.205 116.205 0 0082.395-35.799 48.584 48.584 0 003.125-3.977 170.472 170.472 0 0128.412 19.604 116.205 116.205 0 0054.267 162.232 175.302 175.302 0 01-10.513 32.958z"/></svg>