<svg class="icon" viewBox="0 0 1024 1024" xmlns="http://www.w3.org/2000/svg" width="48" height="48"><defs><style/></defs><path d="M525.653 938.667a101.12 101.12 0 01-70.613-30.08l-353.28-353.92a54.187 54.187 0 01-15.147-49.707l56.32-348.587a32 32 0 0127.734-26.666l335.786-44.374a55.04 55.04 0 0148.214 16.214l353.92 353.706a92.373 92.373 0 015.76 130.134L585.173 914.56a83.627 83.627 0 01-59.52 24.107zM149.333 513.28L500.48 863.36a29.44 29.44 0 0039.467 5.973L869.12 540.16a29.653 29.653 0 00-5.76-39.68L512 149.333 202.24 190.08z"/><path d="M379.52 518.613a137.813 137.813 0 01-98.133-40.746 138.453 138.453 0 1198.133 40.746zm0-213.333a74.88 74.88 0 00-52.907 128 76.8 76.8 0 00106.667 0 74.88 74.88 0 00-52.907-128zM538.24 768a32.213 32.213 0 01-22.613-9.387 31.787 31.787 0 010-45.226l196.48-196.48a32 32 0 0145.226 44.16l-196.48 196.48A32.213 32.213 0 01538.24 768z"/></svg>