<svg class="icon" viewBox="0 0 1024 1024" xmlns="http://www.w3.org/2000/svg" width="48" height="48"><defs><style/></defs><path d="M379.52 304.853a74.88 74.88 0 00-52.907 128 76.8 76.8 0 00106.667 0 74.88 74.88 0 00-52.907-128z"/><path d="M908.587 455.253l-353.92-353.706a55.04 55.04 0 00-48.214-16.214l-335.786 44.374a32 32 0 00-27.734 26.666L86.613 505.6a54.187 54.187 0 0015.147 49.067l353.28 353.92a101.12 101.12 0 0070.613 30.08 83.627 83.627 0 0059.52-24.107l329.174-329.173a92.373 92.373 0 00-5.76-130.134zm-529.067 64a139.093 139.093 0 1198.133-40.746 137.813 137.813 0 01-98.133 40.106zm377.813 42.667L560.853 758.4a32 32 0 01-45.226 0 31.787 31.787 0 010-45.227l196.48-196.48a32 32 0 0145.226 44.374z"/></svg>