<svg class="icon" viewBox="0 0 1024 1024" xmlns="http://www.w3.org/2000/svg" width="37" height="37"><defs><style/></defs><path d="M372.065 364.359c20.339 65.707 60.067 91.706 123.445 113.975 9.93 3.78 21.759 3.78 31.689 2.84 57.697-5.68 114.455-63.377 130.994-117.295 10.41-5.68 17.999-15.139 23.179-27.909 5.68-13.719 8-31.689 7.57-52.998v-6.62l-5.68-3.78a30.154 30.154 0 00-6.62-3.78c11.35-83.236-3.78-139.054-46.818-170.262-62.907-46.348-180.672-45.878-243.099 5.2-39.728 32.639-50.608 75.197-37.838 166.993-.95.47-2.36 1.42-3.31 1.89l-5.68 3.78v7.09c-.47 21.759 2.36 39.728 8 53.918 5.2 11.819 13.239 21.279 24.119 26.999l.049-.041zm473.009 497.408l-44.458-253.709c-.18-.43-.39-.85-.58-1.28l-.87-4.76a78.282 78.282 0 00-5.69-7.52c-41.798-65.677-201.311-70.997-201.311-70.997l-48.818 113.905-8.5-82.196h-.42c7.485-11.045 4.599-26.067-6.446-33.552-11.045-7.485-26.067-4.599-33.552 6.446a24.16 24.16 0 000 27.106h-.42l-8.5 82.196-48.828-113.915s-175.232 6-208.451 84.566l-44.448 253.709s17.309 51.348 83.756 51.348h75.507l3 42.288H682.78l3-42.288h75.507c66.478 0 83.787-51.347 83.787-51.347zm-223.45-205.381l-18.099 36.248H431.372l-15.099-36.248h205.351zm43.798 98.165c-36.248-9.06-45.308 6-45.308 6-9.06 75.507 33.229 99.676 33.229 99.676l-1.51 67.997H377.004l-1.51-67.997s42.288-24.159 33.229-99.676c0 0-9.06-15.099-45.308-6l-13.589-98.166h54.368l21.139 51.348h178.192l21.099-51.348h54.368l-13.57 98.166z"/></svg>